<?xml version="1.0" encoding="utf-8"?>
<!-- Generator: Adobe Illustrator 18.0.0, SVG Export Plug-In . SVG Version: 6.00 Build 0)  -->
<!DOCTYPE svg PUBLIC "-//W3C//DTD SVG 1.1//EN" "http://www.w3.org/Graphics/SVG/1.1/DTD/svg11.dtd">
<svg version="1.1" id="图层_1" xmlns="http://www.w3.org/2000/svg" xmlns:xlink="http://www.w3.org/1999/xlink" x="0px" y="0px"
	 viewBox="0 0 200 200" enable-background="new 0 0 200 200" xml:space="preserve">
<g>
	<g transform="scale(0.1953125, 0.1953125)">
		<path fill="#272636" d="M512.1,851.3c-3.3,0-6.7-1.1-9.5-3.3c-121.9-95.9-203.1-188.4-249.8-249.1c-49.7-64.7-71.6-107.4-73.5-111
			c-17.1-32.1-26.1-68.9-26.1-106.3c0-56.2,19.8-109,55.9-148.8c36.4-40.3,85-62.4,136.7-62.4c40.6,0,79.5,13.7,112.3,39.6
			C489.9,235,513.8,269.7,527,310c2.7,8.1-1.8,16.8-9.9,19.5c-8.1,2.7-16.8-1.8-19.5-9.9c-23.2-70.9-84.3-118.5-151.9-118.5
			c-89.2,0-161.7,80.9-161.7,180.4c0,32.4,7.8,64.2,22.6,91.9c0.1,0.1,0.1,0.2,0.2,0.4c0.2,0.4,21.7,42.9,71.1,107
			c45.6,59.1,124.8,149.3,243.8,242.8c6.7,5.3,7.9,15,2.6,21.7C521.2,849.3,516.6,851.3,512.1,851.3z M512.6,851.3
			c-4.6,0-9.1-2-12.1-5.9c-5.3-6.7-4.1-16.4,2.6-21.7C622.4,729.9,701.9,639.4,747.5,580c49.1-63.9,70.2-105.7,70.4-106.2
			c0.1-0.1,0.1-0.2,0.2-0.4c14.8-27.7,22.6-59.5,22.6-91.9c0-99.5-72.5-180.4-161.7-180.4c-67.6,0-128.7,47.6-151.9,118.5
			c-2.7,8.1-11.4,12.5-19.5,9.9c-8.1-2.7-12.5-11.4-9.9-19.5c13.2-40.3,37.1-75,68.9-100.1c32.9-25.9,71.7-39.6,112.3-39.6
			c51.7,0,100.3,22.2,136.7,62.4c36,39.8,55.9,92.7,55.9,148.8c0,37.4-9,74.2-26.1,106.3c-1.8,3.6-23.7,46.3-73.5,111
			C725.3,659.6,644,752.2,522.2,848C519.3,850.2,516,851.3,512.6,851.3z"/>
	</g>
</g>
</svg>
