<?xml version="1.0" standalone="no"?><!DOCTYPE svg PUBLIC "-//W3C//DTD SVG 1.1//EN" "http://www.w3.org/Graphics/SVG/1.1/DTD/svg11.dtd"><svg width="200" height="200" viewBox="0 0 200 200" version="1.1" xmlns="http://www.w3.org/2000/svg" xmlns:xlink="http://www.w3.org/1999/xlink"><defs><style type="text/css"><![CDATA[

]]></style></defs><g class="transform-group"><g transform="scale(0.1953125, 0.1953125)"><path d="M801.04665 945.698656M87.567893 360.941586M123.246487 104.675014c-30.840402 0-55.802934 24.974811-55.802934 55.80498 0 30.810726 24.962531 55.792701 55.802934 55.792701 30.807656 0 55.789631-24.981974 55.789631-55.792701C179.035094 129.650849 154.054143 104.675014 123.246487 104.675014L123.246487 104.675014zM301.797046 193.953364l624.982214 0c18.486026 0 33.472346-14.973016 33.472346-33.473369 0-18.511609-14.986319-33.485649-33.472346-33.485649L301.797046 126.994346c-18.517749 0-33.472346 14.97404-33.472346 33.485649C268.323677 178.980347 283.279297 193.953364 301.797046 193.953364L301.797046 193.953364zM123.246487 439.482383c-30.840402 0-55.802934 24.968671-55.802934 55.813167 0 30.830169 24.962531 55.79884 55.802934 55.79884 30.807656 0 55.789631-24.968671 55.789631-55.79884C179.035094 464.451054 154.054143 439.482383 123.246487 439.482383L123.246487 439.482383zM926.77926 461.813994 301.797046 461.813994c-18.517749 0-33.472346 14.97404-33.472346 33.480532 0 18.49319 14.954597 33.479509 33.472346 33.479509l624.982214 0c18.486026 0 33.472346-14.986319 33.472346-33.479509C960.251605 476.788034 945.265286 461.813994 926.77926 461.813994L926.77926 461.813994zM123.246487 796.60806c-30.840402 0-55.802934 24.981974-55.802934 55.81419 0 30.842449 24.962531 55.785537 55.802934 55.785537 30.807656 0 55.789631-24.943089 55.789631-55.785537C179.035094 821.590034 154.054143 796.60806 123.246487 796.60806L123.246487 796.60806zM926.77926 818.942741 301.797046 818.942741c-18.517749 0-33.472346 15.011902-33.472346 33.479509 0 18.466584 14.954597 33.466206 33.472346 33.466206l624.982214 0c18.486026 0 33.472346-14.999622 33.472346-33.466206C960.251605 833.954643 945.265286 818.942741 926.77926 818.942741L926.77926 818.942741zM926.523433 812.120358" fill="#272636"></path></g></g></svg>