<?xml version="1.0" encoding="utf-8"?>
<!-- Generator: Adobe Illustrator 18.0.0, SVG Export Plug-In . SVG Version: 6.00 Build 0)  -->
<!DOCTYPE svg PUBLIC "-//W3C//DTD SVG 1.1//EN" "http://www.w3.org/Graphics/SVG/1.1/DTD/svg11.dtd">
<svg version="1.1" id="图层_1" xmlns="http://www.w3.org/2000/svg" xmlns:xlink="http://www.w3.org/1999/xlink" x="0px" y="0px"
	 viewBox="0 0 200 200" enable-background="new 0 0 200 200" xml:space="preserve">
<path d="M169.1,149.7L119.4,100l49.7-49.7c5.4-5.4,5.4-14,0-19.4c-5.4-5.4-14-5.4-19.4,0L100,80.6L50.3,30.9c-5.4-5.4-14-5.4-19.4,0
	s-5.4,14,0,19.4L80.6,100l-49.7,49.7c-5.4,5.4-5.4,14,0,19.4c5.4,5.4,14,5.4,19.4,0l49.7-49.7l49.7,49.7c5.4,5.4,14,5.4,19.4,0
	C174.4,163.7,174.4,155,169.1,149.7z"/>
</svg>
