<?xml version="1.0" encoding="utf-8"?>
<!-- Generator: Adobe Illustrator 18.0.0, SVG Export Plug-In . SVG Version: 6.00 Build 0)  -->
<!DOCTYPE svg PUBLIC "-//W3C//DTD SVG 1.1//EN" "http://www.w3.org/Graphics/SVG/1.1/DTD/svg11.dtd">
<svg version="1.1" id="图层_1" xmlns="http://www.w3.org/2000/svg" xmlns:xlink="http://www.w3.org/1999/xlink" x="0px" y="0px"
	 viewBox="0 0 200 200" enable-background="new 0 0 200 200" xml:space="preserve">
<path fill-rule="evenodd" clip-rule="evenodd" d="M169.9,92.2c-1.4,0-2.8,0.6-3.7,1.6c-0.9,0.9-1.5,2.3-1.5,3.7v49.5
	c0,1.4,0.6,2.7,1.6,3.7h0l0,0c0.9,0.9,2.3,1.5,3.7,1.5h14.3c1.4,0,2.7-0.6,3.7-1.6l0,0l0,0c0.9-0.9,1.5-2.3,1.5-3.7V97.4
	c0-1.3-0.5-2.6-1.3-3.5l-0.2-0.2c-1-1-2.3-1.6-3.7-1.6C179.4,92.2,175.1,92.2,169.9,92.2L169.9,92.2L169.9,92.2z M113.8,167.7
	c-0.2-0.1-0.4-0.2-0.6-0.3c-1.9-1-4.1-1.2-6.1-0.7c-2.1,0.6-4,1.9-5.2,4h0c-0.7,1.3-1.1,2.7-1.1,4v0.2v0.2c0,0.7,0.1,1.4,0.3,2
	c0.5,2,1.8,3.8,3.6,5c0.2,0.1,0.4,0.2,0.7,0.4c2,1,4.1,1.2,6.1,0.7c2-0.5,3.8-1.8,5-3.7c0.1-0.2,0.2-0.4,0.3-0.6
	c1-1.9,1.2-4.1,0.7-6.1C116.9,170.7,115.7,168.9,113.8,167.7L113.8,167.7L113.8,167.7z M118.8,158.5c4.5,2.6,7.6,6.9,8.9,11.5
	c1.3,4.7,0.7,9.9-1.9,14.4l0,0h0c-2.6,4.5-6.9,7.6-11.5,8.9c-4.7,1.3-9.9,0.7-14.4-1.9l-0.1-0.1c-4.4-2.6-7.4-6.6-8.7-11.1H57.3
	c-0.2,0-0.4,0-0.6,0c-11.7-0.3-28.2-3.8-40.2-11.5C6.9,162.6,0,153.7,0,141.5V97.4c0-4.3,1.8-8.3,4.6-11.1c2.9-2.9,6.8-4.6,11.1-4.6
	H18c1.7-20,10.6-38,24-51.4C57,15.3,77.7,6,100.6,6c22.9,0,43.6,9.3,58.7,24.3c13.4,13.4,22.2,31.4,24,51.4h1
	c4.3,0,8.3,1.8,11.1,4.6c0.1,0.1,0.2,0.2,0.3,0.4c2.7,2.8,4.3,6.7,4.3,10.8v49.5c0,4.3-1.8,8.2-4.7,11.1l0,0
	c-2.9,2.9-6.8,4.7-11.1,4.7h-14.3c-4.3,0-8.3-1.8-11.1-4.7v0c-2.8-2.9-4.6-6.8-4.6-11.1V97.4c0-4.3,1.8-8.3,4.6-11.1
	c2.9-2.9,6.8-4.6,11.1-4.6h2.8c-1.7-17.1-9.4-32.4-20.9-43.9c-13.1-13.1-31.2-21.2-51.2-21.2c-20,0-38.1,8.1-51.2,21.2
	C37.9,49.2,30.3,64.6,28.6,81.6h1.5c4.4,0,8.3,1.8,11.1,4.6c0.1,0.1,0.2,0.2,0.3,0.4c2.7,2.8,4.3,6.7,4.3,10.8v44.7
	c0,2.9-2.3,5.3-5.3,5.3c-2.9,0-5.3-2.4-5.3-5.3V97.4c0-1.3-0.5-2.6-1.4-3.5l-0.2-0.2c-1-1-2.3-1.6-3.7-1.6c-5,0-9.3,0-14.3,0
	c-1.4,0-2.8,0.6-3.7,1.6c-0.9,0.9-1.5,2.3-1.5,3.7v44.1c0,8,4.9,14,11.7,18.4c10.2,6.6,24.6,9.5,34.8,9.8l0.3,0H91
	c0.4-1.4,1-2.9,1.8-4.2v0l0,0c2.6-4.5,6.8-7.6,11.5-8.9C109,155.3,114.2,155.9,118.8,158.5L118.8,158.5L118.8,158.5L118.8,158.5z"/>
</svg>
