<?xml version="1.0" encoding="utf-8"?>
<!-- Generator: Adobe Illustrator 18.0.0, SVG Export Plug-In . SVG Version: 6.00 Build 0)  -->
<!DOCTYPE svg PUBLIC "-//W3C//DTD SVG 1.1//EN" "http://www.w3.org/Graphics/SVG/1.1/DTD/svg11.dtd">
<svg version="1.1" id="图层_1" xmlns="http://www.w3.org/2000/svg" xmlns:xlink="http://www.w3.org/1999/xlink" x="0px" y="0px"
	 viewBox="0 0 200 200" enable-background="new 0 0 200 200" xml:space="preserve">
<g id="Page-1">
	<g id="停车点券交易记录无" transform="translate(-112.000000, -144.000000)">
		<g id="iconfont-jiaoyi" transform="translate(112.000000, 144.000000)">
			<path id="Fill-1" d="M188.5,125.7c-11.2,38.3-46.5,66.4-88.5,66.4c-46.3,0-84.7-34.2-91.2-78.8c-0.1-1.8-0.2-3.4-0.2-3.4
				c0-2.2-2.2-4.1-4.3-4.1c-2.2,0-4.3,1.8-4.3,3.9v47.1c0,2.2,1.8,3.9,3.9,3.9s3.9-1.8,3.9-3.9v-18.1c15.1,36,50.7,61.2,92.2,61.2
				c45.6,0,84.1-30.6,96.1-72.3C198.3,120.8,189.8,119.2,188.5,125.7"/>
			<path id="Fill-2" d="M60.5,113.7c-2,0-3.7,1.6-3.7,3.7v0.6c0,2,1.6,3.7,3.7,3.7h35.6v23.5c0,2,1.6,3.6,3.6,3.6h0.6
				c2,0,3.6-1.6,3.6-3.6v-23.5h35.6c2,0,3.7-1.6,3.7-3.7v-0.6c0-2-1.6-3.7-3.7-3.7h-35.6V98h27.7c2,0,3.7-1.6,3.7-3.7v-0.5
				c0-2-1.6-3.7-3.7-3.7h-27.7v-2.4l29-28.6c1.5-1.4,1.5-3.8,0-5.2c-1.5-1.4-3.8-1.4-5.3,0l-27.5,27.1L72.5,53.9
				c-1.5-1.4-3.9-1.4-5.3,0c-1.5,1.4-1.5,3.8,0,5.2l28.9,28.6v2.4H68.4c-2,0-3.7,1.6-3.7,3.7v0.5c0,2,1.6,3.7,3.7,3.7h27.7v15.7
				H60.5"/>
			<path id="Fill-3" d="M196.1,39.2c-2.2,0-3.9,1.8-3.9,3.9v18.1C177,25.2,141.5-0.1,100-0.1c-45.5,0-83.8,30.3-96,71.8
				c-1.7,7.5,5.9,8.3,7.4,2.5C22.6,35.9,58,7.8,100,7.8c46.3,0,84.7,34.2,91.2,78.7c0.2,1.6,0.2,3.6,0.2,3.6c0,2.2,2.1,3.9,4.2,3.9
				c2.2,0,4.4-1.8,4.4-3.9V43.1C200,40.9,198.2,39.2,196.1,39.2"/>
		</g>
	</g>
</g>
</svg>
