<?xml version="1.0" standalone="no"?><!DOCTYPE svg PUBLIC "-//W3C//DTD SVG 1.1//EN" "http://www.w3.org/Graphics/SVG/1.1/DTD/svg11.dtd"><svg width="200" height="200" viewBox="0 0 200 200" version="1.1" xmlns="http://www.w3.org/2000/svg" xmlns:xlink="http://www.w3.org/1999/xlink"><defs><style type="text/css"><![CDATA[
@font-face { font-family: ifont; src: url("//at.alicdn.com/t/font_1442373896_4754455.eot?#iefix") format("embedded-opentype"), url("//at.alicdn.com/t/font_1442373896_4754455.woff") format("woff"), url("//at.alicdn.com/t/font_1442373896_4754455.ttf") format("truetype"), url("//at.alicdn.com/t/font_1442373896_4754455.svg#ifont") format("svg"); }

]]></style></defs><g class="transform-group"><g transform="scale(0.1953125, 0.1953125)"><path d="M 859.786 255.739 l -256.261 256.261 l 256.261 256.261 c 9.151 9.151 18.307 27.457 18.307 45.761 c 0 36.607 -27.457 64.066 -64.066 64.066 c -18.307 0 -36.607 -9.151 -45.761 -18.307 v 0 l -256.261 -256.261 l -256.261 256.261 c -9.151 9.151 -27.457 18.307 -45.761 18.307 c -36.607 0 -64.066 -27.457 -64.066 -64.066 c 0 -18.307 9.151 -36.607 18.307 -45.761 v 0 l 256.261 -256.261 l -256.261 -256.261 c -9.151 -9.151 -18.307 -27.457 -18.307 -45.761 c 0 -36.607 27.457 -64.066 64.066 -64.066 c 18.307 0 36.607 9.151 45.761 18.307 v 0 l 256.261 256.261 l 256.261 -256.261 c 9.151 -9.151 27.457 -18.307 45.761 -18.307 c 36.607 0 64.066 27.457 64.066 64.066 c 0 18.307 -9.151 36.607 -18.307 45.761 v 0 Z" fill="#272636"></path></g></g></svg>