<?xml version="1.0" standalone="no"?><!DOCTYPE svg PUBLIC "-//W3C//DTD SVG 1.1//EN" "http://www.w3.org/Graphics/SVG/1.1/DTD/svg11.dtd"><svg width="200" height="200" viewBox="0 0 200 200" version="1.1" xmlns="http://www.w3.org/2000/svg" xmlns:xlink="http://www.w3.org/1999/xlink"><defs><style type="text/css"><![CDATA[
@font-face { font-family: ifont; src: url("//at.alicdn.com/t/font_1442373896_4754455.eot?#iefix") format("embedded-opentype"), url("//at.alicdn.com/t/font_1442373896_4754455.woff") format("woff"), url("//at.alicdn.com/t/font_1442373896_4754455.ttf") format("truetype"), url("//at.alicdn.com/t/font_1442373896_4754455.svg#ifont") format("svg"); }

]]></style></defs><g class="transform-group"><g transform="scale(0.1953125, 0.1953125)"><path d="M810.364877 587.79936c-23.448038 0-49.676399 19.184945-49.676399 44.86379l0 185.192839c0 33.161261-27.446096 60.137659-61.182454 60.137659L324.493977 877.993648c-33.737382 0-61.184501-26.975375-61.184501-60.137659L263.309476 632.66315c0-2.01489 0.038886-3.983731 0.079818-6.099928 0.223081-11.325953 0.453325-23.040762-7.631818-31.286564-4.934382-5.03262-11.603269-7.477298-20.388353-7.477298-22.131043 0-55.590086 17.893532-55.590086 44.86379l0 230.430136c0 54.273091 44.706201 98.42773 99.655697 98.42773l465.125413 0c54.953589 0 99.660814-44.153616 99.660814-98.42773L844.220962 632.66315c0-5.270027 0-16.242939-4.091178-25.972535C834.934458 594.33317 824.642045 587.79936 810.364877 587.79936zM947.064258 473.304699 564.530912 96.116081c-9.342786-10.504238-33.546024-29.496801-49.1627-30.565133-2.099824-0.550539-4.307096-0.828878-6.565533-0.828878-18.629289 0-38.816051 19.568684-49.235354 31.29168L76.938811 473.300606c-8.607028 8.476045-13.346983 19.764136-13.346983 31.784914 0 12.019755 4.738931 23.309892 13.344936 31.78696 8.55484 8.429996 19.913539 13.072737 31.985482 13.072737 12.07706 0 23.431665-4.64274 31.976272-13.074783l371.101993-365.879038 371.095853 365.874945c8.5487 8.43409 19.906375 13.078877 31.981389 13.078877 12.07399 0 23.432689-4.64274 31.988552-13.074783 8.604982-8.483208 13.343913-19.773346 13.34289-31.791054C960.406125 493.063719 955.667194 481.776651 947.064258 473.304699z" fill="#272636"></path></g></g></svg>