<?xml version="1.0" standalone="no"?><!DOCTYPE svg PUBLIC "-//W3C//DTD SVG 1.1//EN" "http://www.w3.org/Graphics/SVG/1.1/DTD/svg11.dtd"><svg width="200" height="200" viewBox="0 0 200 200" version="1.1" xmlns="http://www.w3.org/2000/svg" xmlns:xlink="http://www.w3.org/1999/xlink"><defs><style type="text/css"><![CDATA[
@font-face { font-family: ifont; src: url("//at.alicdn.com/t/font_1442373896_4754455.eot?#iefix") format("embedded-opentype"), url("//at.alicdn.com/t/font_1442373896_4754455.woff") format("woff"), url("//at.alicdn.com/t/font_1442373896_4754455.ttf") format("truetype"), url("//at.alicdn.com/t/font_1442373896_4754455.svg#ifont") format("svg"); }

]]></style></defs><g class="transform-group"><g transform="scale(0.1953125, 0.1953125)"><path d="M424.213313 768.092006c91.725733 0 174.860929-36.092256 236.544784-94.545909l0.370023 0.460029c1.630102-2.540159 3.500219-4.96031 5.730358-7.190449 16.661041-16.64104 43.662729-16.64104 60.32377 0l284.607788 284.417776c16.661041 16.64104 16.661041 43.642728 0 60.293768s-43.662729 16.64104-60.32377 0L696.880355 757.101319c-73.524595 60.033752-167.240453 96.32602-269.616851 96.32602-235.84474 0-427.016689-191.061941-427.016689-426.72667S191.428764-0.046003 427.263504-0.046003 854.280193 191.015938 854.280193 426.700669c0 46.452903-8.070504 90.865679-21.851366 132.718295-3.120195 20.451278-20.661291 36.192262-42.002625 36.192262-23.561473 0-42.652666-19.081193-42.652666-42.642665l-0.380024-3.950247c0-4.370273 0.850053-8.500531 2.060129-12.470779l-0.210013-0.080005c12.200763-35.232202 19.141196-72.904557 19.141196-112.297019 0-189.951872-154.089631-343.941496-344.171511-343.941496C234.161435 80.229014 80.071804 234.218639 80.071804 424.170511 80.061804 614.102381 234.141434 768.092006 424.213313 768.092006z" fill="#272636"></path></g></g></svg>