<?xml version="1.0" standalone="no"?><!DOCTYPE svg PUBLIC "-//W3C//DTD SVG 1.1//EN" "http://www.w3.org/Graphics/SVG/1.1/DTD/svg11.dtd"><svg width="200" height="200" viewBox="0 0 200 200" version="1.1" xmlns="http://www.w3.org/2000/svg" xmlns:xlink="http://www.w3.org/1999/xlink"><defs><style type="text/css"><![CDATA[
@font-face { font-family: ifont; src: url("//at.alicdn.com/t/font_1442373896_4754455.eot?#iefix") format("embedded-opentype"), url("//at.alicdn.com/t/font_1442373896_4754455.woff") format("woff"), url("//at.alicdn.com/t/font_1442373896_4754455.ttf") format("truetype"), url("//at.alicdn.com/t/font_1442373896_4754455.svg#ifont") format("svg"); }

]]></style></defs><g class="transform-group"><g transform="scale(0.1953125, 0.1953125)"><path d="M817.344 294.464c0-162.624-131.776-294.4-294.336-294.4s-294.4 131.84-294.4 294.4c0 109.504 60.48 203.904 149.184 254.656-169.28 54.656-292.736 210.816-298.752 396.928l60.992 0c7.36-196.032 166.72-353.152 363.84-356.544l7.296-1.728c4.032 0.128 7.872 1.216 11.968 1.216C685.632 588.864 817.344 457.024 817.344 294.464zM523.008 518.4c-123.712 0-224-100.224-224-223.936s100.288-224 224-224 224 100.288 224 224S646.656 518.4 523.008 518.4zM783.296 634.624c-5.632-6.208-13.568-10.304-22.656-10.304-16.96 0-30.72 13.824-30.72 30.72 0 10.368 5.504 19.072 13.376 24.704l-0.32 0.384-0.128 0.128c80.64 62.784 134.272 158.272 141.952 266.432l61.12 0C938.176 820.288 876.48 708.608 783.296 634.624z" fill="#272636"></path></g></g></svg>