<?xml version="1.0" encoding="utf-8"?>
<!-- Generator: Adobe Illustrator 19.0.0, SVG Export Plug-In . SVG Version: 6.00 Build 0)  -->
<svg version="1.1" id="图层_1" xmlns="http://www.w3.org/2000/svg" xmlns:xlink="http://www.w3.org/1999/xlink" x="0px" y="0px"
	 viewBox="-197 320.9 200 200" style="enable-background:new -197 320.9 200 200;" xml:space="preserve">
<style type="text/css">
	.st0{fill-rule:evenodd;clip-rule:evenodd;fill:#B8B8B8;}
</style>
<g>
	<path class="st0" d="M-184.5,359.7L-184.5,359.7v125c0,7,5.6,12.6,12.4,12.6h149.8c6.8,0,12.4-5.6,12.4-12.6v-125
		c0-7-5.6-12.6-12.4-12.6h-149.8C-179,347.2-184.5,352.8-184.5,359.7L-184.5,359.7L-184.5,359.7 M-197,359.7
		c0-13.9,11.2-25.1,24.9-25.1h149.8c13.7,0,24.9,11.2,24.9,25.1v125c0,13.9-11.2,25.1-24.9,25.1h-149.8c-13.7,0-24.9-11.2-24.9-25.1
		V359.7L-197,359.7L-197,359.7 M-197,359.7L-197,359.7z"/>
	<path class="st0" d="M-147.1,434.8c6.9,0,12.5-5.6,12.5-12.5c0-6.9-5.6-12.5-12.5-12.5c-6.9,0-12.5,5.6-12.5,12.5
		C-159.6,429.2-154,434.8-147.1,434.8L-147.1,434.8 M-97.2,434.8c6.9,0,12.5-5.6,12.5-12.5c0-6.9-5.6-12.5-12.5-12.5
		c-6.9,0-12.5,5.6-12.5,12.5C-109.7,429.2-104.1,434.8-97.2,434.8L-97.2,434.8 M-47.4,434.8c6.9,0,12.5-5.6,12.5-12.5
		c0-6.9-5.6-12.5-12.5-12.5c-6.9,0-12.5,5.6-12.5,12.5C-59.8,429.2-54.2,434.8-47.4,434.8L-47.4,434.8 M-47.4,434.8L-47.4,434.8z"/>
</g>
</svg>
