<?xml version="1.0" encoding="utf-8"?>
<!-- Generator: Adobe Illustrator 18.0.0, SVG Export Plug-In . SVG Version: 6.00 Build 0)  -->
<!DOCTYPE svg PUBLIC "-//W3C//DTD SVG 1.1//EN" "http://www.w3.org/Graphics/SVG/1.1/DTD/svg11.dtd">
<svg version="1.1" id="图形" xmlns="http://www.w3.org/2000/svg" xmlns:xlink="http://www.w3.org/1999/xlink" x="0px" y="0px"
	 viewBox="0 0 200 200" enable-background="new 0 0 200 200" xml:space="preserve">
<g>
	<ellipse id="ellipse-1" fill="none" cx="100.4" cy="123.4" rx="28.4" ry="28.1"/>
	<path fill="#B8B8B8" d="M100.4,155.3c-17.7,0-32.1-14.3-32.1-31.9s14.4-31.9,32.1-31.9s32.1,14.3,32.1,31.9
		C132.6,141,118.2,155.3,100.4,155.3z M100.4,99c-13.5,0-24.5,10.9-24.5,24.4c0,13.5,11,24.4,24.5,24.4s24.5-10.9,24.5-24.4
		C125,109.9,114,99,100.4,99z"/>
	<path id="rect-1" fill="none" d="M47.1,71.8h106.7c9.8,0,17.8,8,17.8,17.8v67.6c0,9.8-8,17.8-17.8,17.8H47.1
		c-9.8,0-17.8-8-17.8-17.8V89.5C29.3,79.7,37.3,71.8,47.1,71.8z"/>
	<path fill="#B8B8B8" d="M153.8,178.8H47.1c-11.9,0-21.6-9.6-21.6-21.6V89.5c0-11.9,9.6-21.6,21.6-21.6h106.7
		c11.9,0,21.6,9.6,21.6,21.6v67.6C175.4,169.1,165.7,178.8,153.8,178.8z M47.1,75.5c-7.7,0-14,6.3-14,14v67.6c0,7.7,6.3,14,14,14
		h106.7c7.7,0,14-6.3,14-14V89.5c0-7.7-6.3-14-14-14L47.1,75.5L47.1,75.5z"/>
	<path id="path-1" fill="none" d="M133.7,53c0,0-4.4-27.9-32.4-27.9c-41,0-35.2,34.1-35.2,34.1v12.5"/>
	<path fill="#B8B8B8" d="M69.8,71.7h-7.6V59.4C62,57,60.6,43.6,69.4,33.2c6.7-8,17.4-12,31.9-12c24.8,0,34.4,20.3,36.2,31.1
		l-7.5,1.2c-0.2-1-4.3-24.7-28.7-24.7c-12.1,0-20.9,3.1-26.1,9.3c-7.3,8.6-5.4,20.2-5.4,20.4l0.1,0.3L69.8,71.7L69.8,71.7L69.8,71.7
		z"/>
</g>
</svg>
