<?xml version="1.0" standalone="no"?><!DOCTYPE svg PUBLIC "-//W3C//DTD SVG 1.1//EN" "http://www.w3.org/Graphics/SVG/1.1/DTD/svg11.dtd"><svg width="200" height="200" viewBox="0 0 200 200" version="1.1" xmlns="http://www.w3.org/2000/svg" xmlns:xlink="http://www.w3.org/1999/xlink"><defs><style type="text/css"><![CDATA[
@font-face { font-family: ifont; src: url("//at.alicdn.com/t/font_1442373896_4754455.eot?#iefix") format("embedded-opentype"), url("//at.alicdn.com/t/font_1442373896_4754455.woff") format("woff"), url("//at.alicdn.com/t/font_1442373896_4754455.ttf") format("truetype"), url("//at.alicdn.com/t/font_1442373896_4754455.svg#ifont") format("svg"); }

]]></style></defs><g class="transform-group"><g transform="scale(0.1953125, 0.1953125)"><path d="M852.227822 618.206904c-59.445904 0-107.636462-48.195675-107.636462-107.648742s48.190559-107.648742 107.636462-107.648742c59.442834 0 107.633393 48.195675 107.633393 107.648742S911.669632 618.206904 852.227822 618.206904zM511.417739 618.206904c-59.445904 0-107.634416-48.195675-107.634416-107.648742s48.188512-107.648742 107.634416-107.648742c59.443857 0 107.633393 48.195675 107.633393 107.648742S570.862619 618.206904 511.417739 618.206904zM170.606633 618.206904c-59.443857 0-107.633393-48.195675-107.633393-107.648742s48.189535-107.648742 107.633393-107.648742c59.445904 0 107.636462 48.195675 107.636462 107.648742S230.05356 618.206904 170.606633 618.206904z" fill="#272636"></path></g></g></svg>