<?xml version="1.0" encoding="utf-8"?>
<!-- Generator: Adobe Illustrator 18.0.0, SVG Export Plug-In . SVG Version: 6.00 Build 0)  -->
<!DOCTYPE svg PUBLIC "-//W3C//DTD SVG 1.1//EN" "http://www.w3.org/Graphics/SVG/1.1/DTD/svg11.dtd">
<svg version="1.1" id="图层_1" xmlns="http://www.w3.org/2000/svg" xmlns:xlink="http://www.w3.org/1999/xlink" x="0px" y="0px"
	 viewBox="0 0 200 200" enable-background="new 0 0 200 200" xml:space="preserve">
<g>
	<g>
		<path d="M58.3,106.9h88.9c4.3,0,8-3.6,8-7.8v0l0,0c-0.3-4.4-3.9-7.8-8.3-7.8H58.3c-4.3,0-8,3.6-8,7.8
			C50.3,103.3,54,106.9,58.3,106.9z M58.3,69.1h88.9c4.3,0,8-3.6,8-7.8c0-4.3-3.6-7.8-8-7.8H58.3c-4.3,0-8,3.6-8,7.8
			C50.3,65.5,54,69.1,58.3,69.1z M58.3,147.9h88.9c4.3,0,8-3.6,8-7.8v0l0,0c-0.3-4.4-3.9-7.8-8.3-7.8H58.3c-4.3,0-8,3.6-8,7.8
			C50.3,144.3,54,147.9,58.3,147.9z M171.4,9h-8.8c-4.4,0-9.1,2.7-9.1,7c0,4.1,4.7,8.4,9.1,8.4h8.8c7.8,0,13,5.1,13,12.8v131.8
			c0,7.7-5.2,12.8-13,12.8H32.2c-7.8,0-16.5-5.3-16.5-12.8V37.2c0-7.7,5.2-12.8,13-12.8h12.3c3.8,0,6.2-3.3,6.2-8.4
			c0-5.8-3.4-7-6.2-7H28.6C10.4,9,0,19.3,0,37.5v130c0,8.7,2.7,16.1,7.8,21.3c5.3,5.5,13,8.3,22.3,8.3h139.8
			c9.7,0,17.2-2.5,22.3-7.6c5.2-5.1,7.8-12.5,7.8-22.1v-130C200,20.1,188.8,9,171.4,9z M77.7,22.8h50.1c5.8,0,10.7-4.7,10.7-10.2
			c0-5.5-4.9-10.2-11-10.2H77.7c-6.1,0-11,4.7-11,10.2C66.7,18.1,71.6,22.8,77.7,22.8z"/>
	</g>
</g>
</svg>
