<?xml version="1.0" encoding="utf-8"?>
<!-- Generator: Adobe Illustrator 18.0.0, SVG Export Plug-In . SVG Version: 6.00 Build 0)  -->
<!DOCTYPE svg PUBLIC "-//W3C//DTD SVG 1.1//EN" "http://www.w3.org/Graphics/SVG/1.1/DTD/svg11.dtd">
<svg version="1.1" id="图层_1" xmlns="http://www.w3.org/2000/svg" xmlns:xlink="http://www.w3.org/1999/xlink" x="0px" y="0px"
	 viewBox="0 0 200 200" enable-background="new 0 0 200 200" xml:space="preserve">
<path d="M95.4,193.1l-5.9,0C72.8,193,56.1,193,39.4,193l-23.9,0c-4.8,0-7.4-2.9-7.4-6.7v-83.7c0-1.1-1-2.1-2.3-2.1l-3.6,0
	C1,100.5,0,99.6,0,98.4l0-40.7c0-1.1,1-2.1,2.3-2.1H36c2,0,3-2.2,1.5-3.5c-3.1-2.8-5.6-5.9-7.2-9.4C27.1,35.9,27,28.5,30,22.4
	c2.3-4.7,7-8.4,12.5-9.9c3-0.8,6-1.2,9.1-1.2c4.8,0,9.5,1,13.5,2.9c2.8,1.2,5.1,3,7.3,4.8c0,0,0.1,0.1,0.1,0.1
	c5.5,4.9,9.4,10.8,13.1,16.5l1.7,2.6c2.5,3.9,4.1,8,7.8,11c2,1.8,2.1,2.7,4.5,2.7l0.4,0c2.6,0,3.2-1.1,5.2-3
	c3.7-3.2,5.7-7.1,8.3-11.2c0.8-1.2,1.6-2.5,2.4-3.7c4.5-6.9,9.5-14.2,17.3-18.8c4.6-2.7,10-4.1,15.8-4.1c2.6,0,5.3,0.3,7.8,0.9
	c5.2,1.2,9.4,3.8,11.9,7.4c3.6,4.7,4.8,11.2,3.3,18c-1.4,6.6-6,12.9-12.5,17.3c-0.4,0.3-0.8,0.6-1.2,0.8c2.4,0,31.1,0,39,0
	c1.2,0,2.2,0.9,2.2,2.1v40.7c0,1.1-1,2.1-2.3,2.1c-1.1,0,3.4,0,2.3,0c-1.2,0-5.9,3.5-5.9,4.6c0,16.7,0,30.2,0,46.9
	c0,12.8,0,22.4,0,35.2l0,0c-3.3,2.6-4.6,5.9-5.9,5.9l-59.9-0.1c-5.8,0.1-11.6,0.1-17.4,0.1L95.4,193.1L95.4,193.1z M106.4,129.1
	c0,16.8,0,33.6,0,50.3c0,1.1,1,2.1,2.3,2.1l68.1,0c1.2,0,2.3-0.9,2.3-2.1v-76.8c0-1.1-1-2.1-2.3-2.1l-68.1,0c-1.2,0-2.3,0.9-2.3,2.1
	V129.1L106.4,129.1z M93.1,181.5V177c0-24.8,0-49.6,0-74.4c0-1.1-1-2.1-2.3-2.1l-67.8,0c-1.2,0-2.3,0.9-2.3,2.1v76.8
	c0,1.1,1,2.1,2.3,2.1l39.5,0L93.1,181.5L93.1,181.5z M187.1,88.9V69.3c0-1.1-1-2.1-2.3-2.1l-76.3,0c-4.4,1.1-2.3,19.7-2.3,19.7
	c0,1.1,1,2.1,2.3,2.1h48.2L187.1,88.9L187.1,88.9z M93.1,88.9l0-19.7c0-1.1-1-2.1-2.3-2.1l-75.9,0c-1.2,0-2.3,0.9-2.3,2.1v17.6
	c0,1.1,1,2.1,2.3,2.1h8.3L93.1,88.9L93.1,88.9z M124.4,52c2.4,0,4.8,0,7.2-0.1c6-0.2,11.8-1.6,16.8-4.1c5.8-2.8,9.8-7.1,11.2-11.7
	c0.7-2.3,1.4-6.8-1-10.1c-1.3-1.9-4-2.7-5.5-3c-1.3-0.2-2.6-0.3-3.9-0.3c-3,0-5.7,0.6-8,1.8c-3.8,2-7.1,5.1-10.7,10.2
	c-1.7,2.4-3.3,4.9-4.9,7.3c-1.4,2.2-2.9,4.5-4.5,6.8c-1,1.4,0.1,3.2,1.9,3.2L124.4,52L124.4,52z M82,52c-2.5-3.2-4.7-6.6-6.8-9.9
	c-1.4-2.2-2.9-4.5-4.5-6.7c-2.2-3.2-5-6.8-8.8-9.4c-2.8-2.1-6.4-3.2-10.2-3.2c-0.4,0-0.8,0-1.1,0c-3.7,0.1-6.4,1-7.9,2.7
	c-2.8,3-2.3,7.4-1.8,9.8c1,4.2,4.2,8.3,8.9,11.2C55.7,50,63.2,52,71.1,52l10.1,0H82L82,52L82,52z M82,52 M193.9,187.2
	c0,4.1-0.8,5.9-5.9,5.9l-59.9-0.1"/>
</svg>
