<?xml version="1.0" encoding="utf-8"?>
<!-- Generator: Adobe Illustrator 18.0.0, SVG Export Plug-In . SVG Version: 6.00 Build 0)  -->
<!DOCTYPE svg PUBLIC "-//W3C//DTD SVG 1.1//EN" "http://www.w3.org/Graphics/SVG/1.1/DTD/svg11.dtd">
<svg version="1.1" id="图层_1" xmlns="http://www.w3.org/2000/svg" xmlns:xlink="http://www.w3.org/1999/xlink" x="0px" y="0px"
	 viewBox="0 0 200 200" enable-background="new 0 0 200 200" xml:space="preserve">
<path fill-rule="evenodd" clip-rule="evenodd" d="M197.4,109.9c-2,2-5,2.1-7.3,0.7c-0.4-0.2-0.7-0.4-1-0.7l-7.6-7.6v63.8
	c0,13-10.6,23.5-23.5,23.5l0,0h-36.9l0,0c-3.3,0-5.9-2.6-5.9-5.9c0,6.8,0,2.6,0-5.9h0v-38.8c0-6.5-9.5-11.7-16-11.7h0
	c-6.5,0-16,5.3-16,11.7v38.8l0,0c0,8.4,0,12.7,0,5.9c0,3.2-2.6,5.9-5.9,5.9l0,0H40.3l0,0c-13,0-23.5-10.5-23.5-23.5v-63.8l-7.6,7.6
	c-0.3,0.3-0.7,0.5-1,0.7c-2.3,1.5-5.3,1.3-7.3-0.7c-2.3-2.3-2.3-6,0-8.3l12.8-12.8l4.9-4.9c0,0,0,0,0,0L95,11.9
	c1.1-1.1,2.7-1.7,4.2-1.7c1.5,0,3,0.6,4.2,1.7L179.8,84c0,0,0,0,0,0l16.6,16.6l1,1C199.7,103.9,199.7,107.6,197.4,109.9z
	 M169.7,90.6L99.2,24.3L28.6,90.6v75.5c0,6.5,5.3,11.7,11.8,11.7h11.8h13.4v0h5.9v-38.8c0-13,14.8-23.5,27.8-23.5h0h0h0
	c13,0,27.8,10.5,27.8,23.5v38.8h5.9v0h17.6h7.5c6.5,0,11.8-5.3,11.8-11.7V90.6z"/>
</svg>
