<?xml version="1.0" encoding="utf-8"?>
<!-- Generator: Adobe Illustrator 18.0.0, SVG Export Plug-In . SVG Version: 6.00 Build 0)  -->
<!DOCTYPE svg PUBLIC "-//W3C//DTD SVG 1.1//EN" "http://www.w3.org/Graphics/SVG/1.1/DTD/svg11.dtd">
<svg version="1.1" id="图层_1" xmlns="http://www.w3.org/2000/svg" xmlns:xlink="http://www.w3.org/1999/xlink" x="0px" y="0px"
	 viewBox="0 0 200 200" enable-background="new 0 0 200 200" xml:space="preserve">
<g id="Page-1_1_">
	<g id="停车点券_选择" transform="translate(-15.000000, -75.000000)">
		<g id="通知" transform="translate(0.000000, 64.000000)">
			<path id="Page-1" d="M177.1,186.9c-1.7,0-3.5-0.6-4.9-1.8c-3.1-2.7-3.4-7.4-0.7-10.5c14.9-17,28.6-36.5,28.6-63.6
				s-13.7-46.6-28.6-63.6c-2.7-3.1-2.4-7.8,0.7-10.5c3.1-2.7,7.7-2.4,10.5,0.7c16,18.3,32.3,41.3,32.3,73.5
				c0,32.2-16.3,55.2-32.3,73.5C181.2,186.1,179.2,186.9,177.1,186.9L177.1,186.9z M151.9,161.7c-1.5,0-3-0.5-4.3-1.4
				c-3.3-2.4-4.1-7-1.7-10.4l2.9-4c7.7-10.4,14.3-19.4,14.3-34.9c0-16-5.9-23.8-13.3-33.7c-1.3-1.7-2.6-3.5-3.9-5.3
				c-2.4-3.3-1.6-8,1.7-10.4c3.3-2.4,7.9-1.6,10.3,1.7c1.2,1.7,2.5,3.4,3.7,5c8,10.6,16.3,21.6,16.3,42.7c0,20.4-9.1,32.8-17.2,43.8
				l-2.8,3.9C156.5,160.6,154.3,161.7,151.9,161.7L151.9,161.7z M37.2,81.2c-4.1,0-7.4,3.3-7.4,7.4v44.6c0,4.1,3.3,7.4,7.4,7.4h22.2
				c2,0,3.8,0.8,5.2,2.2l44.5,44.6c0.8,0.8,1.5,1.4,2.2,2V32.4c-0.6,0.5-1.4,1.2-2.2,2L64.7,79c-1.4,1.4-3.3,2.2-5.2,2.2H37.2z
				 M114.6,206.7c-4.9,0-10.2-2.9-16-8.7l-42.3-42.5H37.2c-12.3,0-22.2-10-22.2-22.3V88.6c0-12.3,10-22.3,22.2-22.3h19.2l42.3-42.4
				c5.7-5.7,11.1-8.6,15.9-8.6c5.3,0,11.5,3.6,11.5,13.9v163.6C126.1,203,119.9,206.7,114.6,206.7L114.6,206.7z"/>
		</g>
	</g>
</g>
</svg>
