<?xml version="1.0" encoding="utf-8"?>
<!-- Generator: Adobe Illustrator 18.0.0, SVG Export Plug-In . SVG Version: 6.00 Build 0)  -->
<!DOCTYPE svg PUBLIC "-//W3C//DTD SVG 1.1//EN" "http://www.w3.org/Graphics/SVG/1.1/DTD/svg11.dtd">
<svg version="1.1" id="图层_1" xmlns="http://www.w3.org/2000/svg" xmlns:xlink="http://www.w3.org/1999/xlink" x="0px" y="0px"
	 viewBox="0 0 200 200" enable-background="new 0 0 200 200" xml:space="preserve">
<g>
	<path fill-rule="evenodd" clip-rule="evenodd" fill="#272636" d="M177.2,179.7c-2.9,2.8-7.7,2.8-10.6,0l-31.9-30
		c-0.1-0.1-0.1-0.1-0.1-0.2c-11.3,6.4-24.6,10.2-38.8,10.2c-41.5,0-75.2-31.7-75.2-70.7c0-39.1,33.7-70.7,75.2-70.7
		c41.5,0,75.2,31.7,75.2,70.7c0,20.6-9.4,39.1-24.3,52l30.6,28.8C180.2,172.5,180.2,176.9,177.2,179.7z M155.9,89
		c0-31.3-26.9-56.6-60.2-56.6c-33.2,0-60.2,25.3-60.2,56.6c0,31.3,26.9,56.6,60.2,56.6C129,145.6,155.9,120.2,155.9,89z"/>
</g>
</svg>
