<?xml version="1.0" encoding="utf-8"?>
<!-- Generator: Adobe Illustrator 18.0.0, SVG Export Plug-In . SVG Version: 6.00 Build 0)  -->
<!DOCTYPE svg PUBLIC "-//W3C//DTD SVG 1.1//EN" "http://www.w3.org/Graphics/SVG/1.1/DTD/svg11.dtd">
<svg version="1.1" id="图层_1" xmlns="http://www.w3.org/2000/svg" xmlns:xlink="http://www.w3.org/1999/xlink" x="0px" y="0px"
	 viewBox="0 0 200 200" enable-background="new 0 0 200 200" xml:space="preserve">
<g>
	<g transform="scale(0.1953125, 0.1953125)">
		<path id="SVGID_1_" d="M840.5,403.3l-37.6,187.8l0,0c-2.8,14.5-7.4,25.4-14.5,31.4c-11.8,9.9-15.2,11-27.3,10.3H382.8
			c-64.6,0-83.9-24.5-97-69.7c-37-128.2-84.3-254.2-105-326.8h-26c-11.5,0-20.9-9.4-20.9-20.8c0-11.5,9.4-20.8,20.9-20.8h41.8
			c9.3,0,17.5,6.2,20.1,15.2c0,0,30.6,93,66.5,214.4H710c11.5,0,20.9,9.4,20.9,20.8c0,11.5-9.4,20.9-20.9,20.9H295.4
			c3.9,13.4,7.8,26.8,11.6,40.7c0,0,22.5,57.6,18.8,45c8.7,30,13.5,39.5,56.9,39.5H761l41-204.5c11.9-90,32.5-88.5-67.2-87.8
			c-0.1,0-0.3,0.1-0.5,0.1H322.1c-11.5,0-20.9-9.3-20.9-20.8s9.4-20.8,20.9-20.8h412.3c0.2,0,0.4,0.1,0.5,0.1
			c117.9,1,138,1.9,112.1,116c-0.5,4.7-2.3,5.8-2.3,9.1L840.5,403.3L840.5,403.3z M366.9,683.3c40.4,0,73.2,32.7,73.2,73
			s-32.8,73.1-73.2,73.1s-73.2-32.7-73.2-73.1C293.8,715.9,326.5,683.3,366.9,683.3L366.9,683.3z M366.9,787.7
			c17.3,0,31.3-14,31.3-31.3c0-17.3-14.1-31.3-31.3-31.3c-17.3,0-31.3,14.1-31.3,31.3C335.6,773.6,349.6,787.7,366.9,787.7
			L366.9,787.7z M722.3,683.3c40.4,0,73.2,32.7,73.2,73s-32.8,73.1-73.2,73.1c-40.4,0-73.2-32.7-73.2-73.1
			C649.1,715.9,681.9,683.3,722.3,683.3L722.3,683.3z M722.3,787.7c17.3,0,31.3-14,31.3-31.3c0-17.3-14.1-31.3-31.3-31.3
			c-17.3,0-31.3,14.1-31.3,31.3C690.9,773.6,705,787.7,722.3,787.7L722.3,787.7z"/>
	</g>
</g>
</svg>
