<?xml version="1.0" encoding="utf-8"?>
<!-- Generator: Adobe Illustrator 16.0.0, SVG Export Plug-In . SVG Version: 6.00 Build 0)  -->
<!DOCTYPE svg PUBLIC "-//W3C//DTD SVG 1.1//EN" "http://www.w3.org/Graphics/SVG/1.1/DTD/svg11.dtd">
<svg version="1.1" id="图形" xmlns="http://www.w3.org/2000/svg" xmlns:xlink="http://www.w3.org/1999/xlink" x="0px" y="0px" width="200" height="200" viewBox="0 0 200 200" enable-background="new 15.167 -16.333 1000.637 1000.678" xml:space="preserve">
<g transform="scale(0.1953125, 0.1953125)">
	<defs>
		<path id="SVGID_1_" d="M871.898,342.758l-38.817,193.803l0,0c-2.914,15.01-7.57,26.215-14.999,32.437
			c-12.193,10.184-15.747,11.418-28.151,10.601H399.709c-66.719,0-86.642-25.265-100.132-71.892
			c-38.176-132.283-86.998-262.255-108.254-337.221h-26.819c-11.926,0-21.594-9.651-21.594-21.549
			c0-11.872,9.668-21.523,21.594-21.523h43.135c9.632,0,18.092,6.416,20.723,15.685c0,0,31.635,95.974,68.638,221.183h440.427
			c11.944,0,21.612,9.65,21.612,21.523c0,11.899-9.668,21.55-21.612,21.55H309.619c3.981,13.801,7.998,27.734,12.015,41.953
			c0,0,23.158,59.414,19.39,46.44c8.957,31.004,13.934,40.779,58.686,40.779H789.93l42.298-210.999
			c12.335-92.863,33.521-91.308-69.313-90.552c-0.143,0-0.285,0.098-0.463,0.098h-425.41c-11.908,0-21.593-9.615-21.593-21.522
			c0-11.864,9.686-21.514,21.593-21.514h425.41c0.178,0,0.356,0.098,0.499,0.098c121.637,1.013,142.359,1.999,115.665,119.717
			c-0.499,4.763-2.417,5.963-2.417,9.358L871.898,342.758L871.898,342.758z M383.322,631.583c41.695,0,75.463,33.706,75.463,75.322
			c0,41.641-33.768,75.374-75.463,75.374c-41.694,0-75.48-33.733-75.48-75.374C307.842,665.289,341.628,631.583,383.322,631.583
			L383.322,631.583z M383.322,739.216c17.844,0,32.312-14.449,32.312-32.311c0-17.81-14.468-32.285-32.312-32.285
			c-17.879,0-32.346,14.476-32.346,32.285C350.976,724.767,365.443,739.216,383.322,739.216L383.322,739.216z M749.94,631.583
			c41.731,0,75.5,33.706,75.5,75.322c0,41.641-33.769,75.374-75.5,75.374c-41.695,0-75.463-33.733-75.463-75.374
			C674.477,665.289,708.245,631.583,749.94,631.583L749.94,631.583z M749.94,739.216c17.88,0,32.347-14.449,32.347-32.311
			c0-17.81-14.467-32.285-32.347-32.285c-17.844,0-32.347,14.476-32.347,32.285C717.593,724.767,732.096,739.216,749.94,739.216
			L749.94,739.216z"/>
	</defs>
	<use xlink:href="#SVGID_1_"  overflow="visible" fill-rule="evenodd" clip-rule="evenodd" fill="#555555"/>
	<clipPath id="SVGID_2_">
		<use xlink:href="#SVGID_1_"  overflow="visible"/>
	</clipPath>
</g>
</svg>
