<?xml version="1.0" encoding="utf-8"?>
<!-- Generator: Adobe Illustrator 16.0.0, SVG Export Plug-In . SVG Version: 6.00 Build 0)  -->
<!DOCTYPE svg PUBLIC "-//W3C//DTD SVG 1.1//EN" "http://www.w3.org/Graphics/SVG/1.1/DTD/svg11.dtd">
<svg version="1.1" id="图形" xmlns="http://www.w3.org/2000/svg" xmlns:xlink="http://www.w3.org/1999/xlink" x="0px" y="0px" width="200" height="200" viewBox="0 0 200 200" enable-background="new 15.167 -16.333 1000.637 1000.678" xml:space="preserve">
<g transform="scale(0.1953125, 0.1953125)">
	<defs>
		<path id="SVGID_1_" d="M793.85,816.122H588.376V616.322H457.578v199.801H252.105V396.344l-106.894,95.28
			c-3.817,3.39-8.599,5.031-13.379,5.031c-5.281,0-10.49-1.998-14.343-5.94c-7.421-7.564-6.993-19.409,0.963-26.474L522.977,103.69
			l404.597,361.621c7.921,7.047,8.312,18.928,0.892,26.474c-3.854,3.925-9.062,5.923-14.307,5.923
			c-4.817,0-9.598-1.677-13.415-5.066l-106.894-95.53V816.122L793.85,816.122L793.85,816.122z"/>
	</defs>
	<clipPath id="SVGID_2_">
		<use xlink:href="#SVGID_1_"  overflow="visible"/>
	</clipPath>
	<g clip-path="url(#SVGID_2_)">
		
			<image overflow="visible" width="302" height="105" xlink:href="C4FF8005805242A0.jpg"  transform="matrix(18.2675 0 0 18.2675 -1364.5586 -499.1365)">
		</image>
	</g>
</g>
</svg>
