<?xml version="1.0" encoding="utf-8"?>
<!-- Generator: Adobe Illustrator 16.0.0, SVG Export Plug-In . SVG Version: 6.00 Build 0)  -->
<!DOCTYPE svg PUBLIC "-//W3C//DTD SVG 1.1//EN" "http://www.w3.org/Graphics/SVG/1.1/DTD/svg11.dtd">
<svg version="1.1" id="图形" xmlns="http://www.w3.org/2000/svg" xmlns:xlink="http://www.w3.org/1999/xlink" x="0px" y="0px" width="200" height="200" viewBox="0 0 200 200" enable-background="new 15.167 -16.333 1000.637 1000.678" xml:space="preserve">
<g transform="scale(0.1953125, 0.1953125)">
	<path fill="none" d="M588.705,535.981c46.507-26.417,78.022-76.989,78.022-134.961c0-85.347-68.208-154.59-152.29-154.59
		c-84.121,0-152.291,69.244-152.291,154.59c0,57.972,31.401,108.467,78.024,134.961c-92.708,31.344-159.882,119.423-161.301,223.71
		c0,9.278,7.4,16.756,16.563,16.756c9.125,0,16.563-7.478,16.563-16.756c1.688-112.07,91.635-202.335,202.441-202.335
		c110.844,0,200.754,90.303,202.479,202.335c0,9.278,7.399,16.756,16.523,16.756c9.164,0,16.564-7.478,16.564-16.756
		C748.663,655.404,681.489,567.248,588.705,535.981L588.705,535.981L588.705,535.981L588.705,535.981z M395.771,401.039
		c0-66.58,53.141-120.468,118.666-120.468c65.486,0,118.665,53.965,118.665,120.468c0,66.541-53.179,120.448-118.665,120.448
		C448.835,521.488,395.771,467.58,395.771,401.039L395.771,401.039L395.771,401.039L395.771,401.039z"/>
	<path fill="#555555" d="M514.437,815.727c184.036,0,333.721-149.703,333.721-333.73c0-183.999-149.685-333.711-333.721-333.711
		c-183.999,0-333.72,149.712-333.72,333.711C180.717,666.024,330.438,815.727,514.437,815.727 M514.437,854.988
		c-205.968,0-372.981-166.994-372.981-372.991c0-205.968,167.014-372.972,372.981-372.972c206.006,0,372.981,167.004,372.981,372.972
		C887.418,687.993,720.443,854.988,514.437,854.988L514.437,854.988L514.437,854.988z"/>
	<path fill="none" d="M514.437,557.356c-77.66,0-144.929,44.408-178.899,109.512h357.798
		C659.367,601.783,592.116,557.356,514.437,557.356z"/>
	<path fill="none" d="M633.102,401.039c0-66.503-53.179-120.468-118.665-120.468c-65.525,0-118.666,53.888-118.666,120.468
		c0,66.541,53.064,120.448,118.666,120.448C579.923,521.488,633.102,467.58,633.102,401.039z"/>
	<path fill="#555555" d="M514.437,557.356c77.679,0,144.93,44.428,178.898,109.512h36.866
		c-26.647-61.537-78.062-109.512-141.497-130.887c46.507-26.417,78.022-76.989,78.022-134.961c0-85.347-68.208-154.59-152.29-154.59
		c-84.121,0-152.291,69.244-152.291,154.59c0,57.972,31.401,108.467,78.024,134.961c-63.377,21.423-114.774,69.388-141.44,130.887
		h36.807C369.508,601.764,436.777,557.356,514.437,557.356z M395.771,401.039c0-66.58,53.141-120.468,118.666-120.468
		c65.486,0,118.665,53.965,118.665,120.468c0,66.541-53.179,120.448-118.665,120.448C448.835,521.488,395.771,467.58,395.771,401.039
		z"/>
</g>
</svg>
