<?xml version="1.0" encoding="utf-8"?>
<!-- Generator: Adobe Illustrator 16.0.0, SVG Export Plug-In . SVG Version: 6.00 Build 0)  -->
<!DOCTYPE svg PUBLIC "-//W3C//DTD SVG 1.1//EN" "http://www.w3.org/Graphics/SVG/1.1/DTD/svg11.dtd">
<svg version="1.1" id="图形" xmlns="http://www.w3.org/2000/svg" xmlns:xlink="http://www.w3.org/1999/xlink" x="0px" y="0px" width="200" height="200" viewBox="0 0 200 200" enable-background="new 15.167 -16.333 1000.637 1000.678" xml:space="preserve">
<g transform="scale(0.1953125, 0.1953125)">
	<defs>
		<path id="SVGID_1_" d="M621.856,547.242c50.041,0,97.686-18.849,134.187-53.065l10.266-9.613l8.814-11.001
			c28.07-35.103,42.935-77.471,42.935-122.53c0-108.176-88.024-196.202-196.201-196.202c-108.176,0-196.201,88.026-196.201,196.202
			C425.655,459.217,513.68,547.242,621.856,547.242 M572.823,678.028H164.068c-9.037,0-16.366-7.321-16.366-16.334
			c0-9.037,7.329-16.366,16.366-16.366h408.754c9.005,0,16.317,7.329,16.317,16.366C589.14,670.706,581.828,678.028,572.823,678.028
			L572.823,678.028L572.823,678.028z M916.429,649.287c-4.183,0-8.365-1.597-11.559-4.79L778.397,518.039
			c-40.924,38.385-95.979,61.903-156.541,61.903c-126.441,0-228.917-102.476-228.917-228.91
			c0-126.426,102.476-228.902,228.917-228.902c126.428,0,228.902,102.476,228.902,228.902c0,54.096-18.762,103.793-50.12,142.968
			l127.336,127.401c6.387,6.386,6.387,16.709,0,23.096C924.781,647.691,920.614,649.287,916.429,649.287L916.429,649.287
			L916.429,649.287z M294.87,449.126H164.068c-9.037,0-16.366-7.304-16.366-16.342s7.329-16.334,16.366-16.334H294.87
			c9.005,0,16.318,7.297,16.318,16.334S303.875,449.126,294.87,449.126L294.87,449.126L294.87,449.126z M294.87,220.216H164.068
			c-9.037,0-16.366-7.297-16.366-16.342c0-9.005,7.329-16.334,16.366-16.334H294.87c9.005,0,16.318,7.329,16.318,16.334
			C311.188,212.919,303.875,220.216,294.87,220.216L294.87,220.216L294.87,220.216z"/>
	</defs>
	<use xlink:href="#SVGID_1_"  overflow="visible" fill="#555555"/>
	<clipPath id="SVGID_2_">
		<use xlink:href="#SVGID_1_"  overflow="visible"/>
	</clipPath>
</g>
</svg>
