<svg xmlns="http://www.w3.org/2000/svg" style="width:0; height:0; visibility:hidden;">
    <symbol id="arrow-back" viewBox="0 0 200 200">
      <path d="M71.653 99.819l88.113-81.93a10.422 10.422 0 0 0 0-14.89c-4.147-4.11-10.856-4.11-15.016 0L48.604 92.372c-4.148 4.11-4.148 10.781 0 14.88l96.146 89.374c4.16 4.135 10.869 4.135 15.016 0a10.422 10.422 0 0 0 0-14.892L71.653 99.82z" fill="#272636" class="transform-group"/>
    </symbol>
    <symbol id="more-h" viewBox="0 0 200 200">
      <path d="M100 56.37c12.046 0 21.812-9.765 21.812-21.81 0-12.047-9.767-21.812-21.812-21.812-12.047 0-21.812 9.765-21.812 21.813 0 12.044 9.765 21.81 21.812 21.81zm0 21.813c-12.047 0-21.812 9.765-21.812 21.813 0 12.044 9.765 21.812 21.812 21.812 12.046 0 21.812-9.768 21.812-21.812 0-12.048-9.766-21.813-21.812-21.813zm0 65.437c-12.047 0-21.812 9.765-21.812 21.812 0 12.046 9.765 21.811 21.812 21.811 12.046 0 21.812-9.765 21.812-21.811 0-12.047-9.766-21.812-21.812-21.812z" fill="#272636" class="transform-group"/>
    </symbol></svg>