<svg width="200" height="200" viewBox="0 0 200 200" xmlns="http://www.w3.org/2000/svg"><defs><style><![CDATA[

]]></style></defs><path d="M187.564 98.107c0-47.76-39.135-86.476-87.411-86.476S12.742 50.347 12.742 98.107c0 .282.003.563.006.843-.003.281-.006.562-.006.843 0 47.76 39.135 86.477 87.411 86.477s87.411-38.717 87.411-86.477c0-.281-.003-.562-.006-.843.003-.28.006-.561.006-.843zm-37.487 4.149a5.666 5.666 0 0 1-5.666 5.666h-35.287v35.287a5.666 5.666 0 0 1-5.665 5.665h-6.612a5.666 5.666 0 0 1-5.666-5.665v-35.287H55.895a5.666 5.666 0 0 1-5.666-5.666v-6.612a5.665 5.665 0 0 1 5.666-5.665h35.287V54.692a5.666 5.666 0 0 1 5.665-5.666h6.612a5.666 5.666 0 0 1 5.666 5.666v35.287h35.287a5.666 5.666 0 0 1 5.665 5.666v6.61z" fill="#272636" class="transform-group"/></svg>