<svg width="200" height="200" viewBox="0 0 200 200" xmlns="http://www.w3.org/2000/svg"><defs><style>@font-face{font-family:ifont;src:url(//at.alicdn.com/t/font_1442373896_4754455.eot?#iefix) format(&quot;embedded-opentype&quot;),url(//at.alicdn.com/t/font_1442373896_4754455.woff) format(&quot;woff&quot;),url(//at.alicdn.com/t/font_1442373896_4754455.ttf) format(&quot;truetype&quot;),url(//at.alicdn.com/t/font_1442373896_4754455.svg#ifont) format(&quot;svg&quot;)}</style></defs><path d="M95.123 132.507l-42.33-44.029a6.776 6.776 0 0 1-1.899-4.697c0-1.778.7-3.557 2.079-4.876a6.762 6.762 0 0 1 9.573.18L100 118.037l37.454-38.952a6.762 6.762 0 0 1 9.573-.18 6.762 6.762 0 0 1 .18 9.573l-42.33 44.03a6.727 6.727 0 0 1-4.877 2.078 6.806 6.806 0 0 1-4.877-2.079z" fill="#272636" class="transform-group"/></svg>