<svg width="200" height="200" viewBox="0 0 200 200" xmlns="http://www.w3.org/2000/svg"><defs><style>@font-face{font-family:ifont;src:url(//at.alicdn.com/t/font_1442373896_4754455.eot?#iefix) format(&quot;embedded-opentype&quot;),url(//at.alicdn.com/t/font_1442373896_4754455.woff) format(&quot;woff&quot;),url(//at.alicdn.com/t/font_1442373896_4754455.ttf) format(&quot;truetype&quot;),url(//at.alicdn.com/t/font_1442373896_4754455.svg#ifont) format(&quot;svg&quot;)}</style></defs><path d="M116.35 102.756L76.225 64.225a4.768 4.768 0 0 1 .59-6.775 4.902 4.902 0 0 1 6.854.6l40.122 38.531c1.73 2.038 1.465 5.072-.588 6.775s-5.125 1.44-6.853-.6zm-40.128 33.119l40.125-38.531a4.906 4.906 0 0 1 6.853-.603 4.77 4.77 0 0 1 .59 6.775l-40.124 38.53a4.902 4.902 0 0 1-6.854.6 4.763 4.763 0 0 1-.59-6.771z" fill="#272636" class="transform-group"/></svg>