<svg width="200" height="200" viewBox="0 0 200 200" xmlns="http://www.w3.org/2000/svg"><defs><style><![CDATA[

]]></style></defs><path d="M162.5 18.75h-125c-10.338 0-18.75 8.413-18.75 18.75v125c0 10.338 8.412 18.75 18.75 18.75h125c10.337 0 18.75-8.412 18.75-18.75v-125c0-10.338-8.412-18.75-18.75-18.75zm-20.463 66.881L91.994 136.22c-.013.012-.038.018-.05.037-.02.013-.02.038-.038.05-.4.388-.894.625-1.356.888-.231.131-.419.331-.663.425a6.198 6.198 0 0 1-4.7-.012c-.25-.107-.45-.32-.687-.45-.463-.263-.944-.494-1.344-.888-.013-.012-.019-.038-.031-.05-.013-.019-.038-.019-.05-.038l-24.613-25.293a6.25 6.25 0 1 1 8.963-8.713L87.592 122.9l45.562-46.056a6.249 6.249 0 0 1 8.838-.05c2.445 2.43 2.47 6.387.044 8.837z" fill="#272636" class="transform-group"/></svg>