<svg width="200" height="200" viewBox="0 0 200 200" xmlns="http://www.w3.org/2000/svg"><defs><style><![CDATA[

]]></style></defs><path d="M24.072000000000013 20.444000000000003c-6.024 0-10.9 4.878-10.9 10.9 0 6.017 4.876 10.897 10.9 10.897 6.017 0 10.896-4.88 10.896-10.897 0-6.022-4.88-10.9-10.896-10.9zm34.873 17.438h122.067a6.536 6.536 0 0 0 6.537-6.538 6.537 6.537 0 0 0-6.537-6.54H58.945a6.533 6.533 0 0 0-6.538 6.54 6.532 6.532 0 0 0 6.538 6.538zM24.072 85.836c-6.024 0-10.9 4.877-10.9 10.901 0 6.022 4.876 10.899 10.9 10.899 6.017 0 10.896-4.877 10.896-10.899 0-6.024-4.88-10.9-10.896-10.9zm156.94 4.362H58.945a6.532 6.532 0 0 0-6.538 6.54 6.534 6.534 0 0 0 6.538 6.538h122.067a6.538 6.538 0 0 0 6.537-6.539 6.536 6.536 0 0 0-6.537-6.539zm-156.94 65.39c-6.024 0-10.9 4.879-10.9 10.9 0 6.025 4.876 10.896 10.9 10.896 6.017 0 10.896-4.871 10.896-10.895 0-6.022-4.88-10.901-10.896-10.901zm156.94 4.362H58.945a6.537 6.537 0 0 0-6.538 6.539 6.535 6.535 0 0 0 6.538 6.536h122.067c3.61 0 6.537-2.93 6.537-6.536a6.541 6.541 0 0 0-6.537-6.54zm-.05-1.333" fill="#272636" class="transform-group"/></svg>