<svg width="200" height="200" viewBox="0 0 200 200" xmlns="http://www.w3.org/2000/svg"><defs><style><![CDATA[

]]></style></defs><path d="M108.85 100.244L160.663 48.7a6.243 6.243 0 0 0 .024-8.837 6.237 6.237 0 0 0-8.837-.025l-51.825 51.55L48.65 39.856a6.254 6.254 0 0 0-8.837-.012 6.256 6.256 0 0 0-.013 8.844l51.362 51.518-51.787 51.513a6.243 6.243 0 0 0-.025 8.837 6.237 6.237 0 0 0 4.431 1.844 6.228 6.228 0 0 0 4.407-1.818l51.8-51.525 51.844 52a6.217 6.217 0 0 0 4.425 1.837 6.249 6.249 0 0 0 4.425-10.663l-51.832-51.987z" fill="#272636" class="transform-group"/></svg>