<svg width="200" height="200" viewBox="0 0 200 200" xmlns="http://www.w3.org/2000/svg"><defs><style><![CDATA[

]]></style></defs><path d="M100 12.5c-48.244 0-87.5 39.25-87.5 87.5s39.25 87.5 87.5 87.5c48.244 0 87.5-39.25 87.5-87.5S148.25 12.5 100 12.5zm35.694 114.45a6.249 6.249 0 0 1-4.425 10.663 6.218 6.218 0 0 1-4.425-1.838L99.969 108.82l-26.963 26.675a6.25 6.25 0 1 1-8.787-8.888L91.15 99.97 64.319 73.05a6.249 6.249 0 0 1 .012-8.838c2.444-2.443 6.394-2.43 8.838.013l26.868 26.95L127 64.5a6.243 6.243 0 0 1 8.837.05 6.243 6.243 0 0 1-.05 8.838l-26.93 26.637 26.837 26.925z" fill="#272636" class="transform-group"/></svg>