<svg width="200" height="200" viewBox="0 0 200 200" xmlns="http://www.w3.org/2000/svg"><defs><style>@font-face{font-family:ifont;src:url(//at.alicdn.com/t/font_1442373896_4754455.eot?#iefix) format(&quot;embedded-opentype&quot;),url(//at.alicdn.com/t/font_1442373896_4754455.woff) format(&quot;woff&quot;),url(//at.alicdn.com/t/font_1442373896_4754455.ttf) format(&quot;truetype&quot;),url(//at.alicdn.com/t/font_1442373896_4754455.svg#ifont) format(&quot;svg&quot;)}</style></defs><path d="M100 56.37c12.046 0 21.812-9.765 21.812-21.81 0-12.047-9.767-21.812-21.812-21.812-12.047 0-21.812 9.765-21.812 21.813 0 12.044 9.765 21.81 21.812 21.81zm0 21.813c-12.047 0-21.812 9.765-21.812 21.813 0 12.044 9.765 21.812 21.812 21.812 12.046 0 21.812-9.768 21.812-21.812 0-12.048-9.766-21.813-21.812-21.813zm0 65.437c-12.047 0-21.812 9.765-21.812 21.812 0 12.046 9.765 21.811 21.812 21.811 12.046 0 21.812-9.765 21.812-21.811 0-12.047-9.766-21.812-21.812-21.812z" fill="#272636" class="transform-group"/></svg>