<svg width="200" height="200" viewBox="0 0 200 200" xmlns="http://www.w3.org/2000/svg"><defs><style><![CDATA[

]]></style></defs><path d="M100 12.887c-48.031 0-87.113 39.081-87.113 87.113 0 48.038 39.075 87.113 87.113 87.113s87.113-39.075 87.113-87.113c0-48.031-39.075-87.113-87.113-87.113zm42.037 72.744L91.994 136.22c-.013.012-.038.018-.05.037-.02.013-.02.038-.038.05-.4.388-.894.625-1.356.888-.231.131-.419.331-.663.425a6.198 6.198 0 0 1-4.7-.012c-.25-.107-.45-.32-.687-.45-.463-.263-.944-.494-1.344-.888-.013-.012-.019-.038-.031-.05-.013-.019-.038-.019-.05-.038l-24.613-25.293a6.25 6.25 0 1 1 8.963-8.713L87.592 122.9l45.562-46.062a6.243 6.243 0 0 1 8.838-.05 6.267 6.267 0 0 1 .044 8.843z" fill="#272636" class="transform-group"/></svg>