<svg width="200" height="200" viewBox="0 0 200 200" xmlns="http://www.w3.org/2000/svg"><defs><style><![CDATA[

]]></style></defs><path d="M99.776 36.28V12.505l-31.546 31.7 31.546 31.712V52.13c26.025 0 47.32 21.4 47.32 47.551 0 7.925-2.365 15.85-5.522 22.195l11.835 11.882c5.522-10.29 9.46-21.387 9.46-34.077 0-34.873-28.39-63.401-63.093-63.401m.2 110.952c-26.024 0-47.319-21.388-47.319-47.551 0-7.925 2.365-15.839 5.522-22.184L46.343 65.604c-5.522 10.313-9.46 21.399-9.46 34.077 0 34.873 28.39 63.401 63.093 63.401v23.787l31.558-31.712-31.558-31.69v23.765z" fill="#272636" class="transform-group"/></svg>