<svg width="200" height="200" viewBox="0 0 200 200" xmlns="http://www.w3.org/2000/svg"><defs><style><![CDATA[

]]></style></defs><path d="M186.225 177.39l-29.8-31.884c12.095-14.547 18.714-32.689 18.714-51.772 0-44.784-36.453-81.236-81.27-81.236-44.785 0-81.237 36.452-81.237 81.236s36.452 81.237 81.237 81.237c11.725 0 23.047-2.453 33.63-7.29 3.158-1.445 4.535-5.141 3.09-8.266-1.444-3.158-5.14-4.535-8.264-3.09a68.498 68.498 0 0 1-28.456 6.148c-37.897 0-68.739-30.842-68.739-68.739 0-37.897 30.842-68.738 68.739-68.738 37.896 0 68.738 30.841 68.738 68.738 0 17.84-6.82 34.739-19.15 47.607-2.385 2.486-2.318 6.45.168 8.835.202.168.437.236.638.404.168.235.27.537.47.772l32.32 34.571a6.212 6.212 0 0 0 4.57 1.982 6.285 6.285 0 0 0 4.266-1.68 6.23 6.23 0 0 0 .336-8.835z" fill="#272636" class="transform-group"/></svg>