<svg width="200" height="200" viewBox="0 0 200 200" xmlns="http://www.w3.org/2000/svg"><defs><style>@font-face{font-family:ifont;src:url(//at.alicdn.com/t/font_1442373896_4754455.eot?#iefix) format(&quot;embedded-opentype&quot;),url(//at.alicdn.com/t/font_1442373896_4754455.woff) format(&quot;woff&quot;),url(//at.alicdn.com/t/font_1442373896_4754455.ttf) format(&quot;truetype&quot;),url(//at.alicdn.com/t/font_1442373896_4754455.svg#ifont) format(&quot;svg&quot;)}</style></defs><path d="M88.964 157.24c-38.064 0-69.032-30.967-69.032-69.03S50.9 19.18 88.964 19.18s69.033 30.967 69.033 69.03-30.969 69.03-69.033 69.03m0-121.07c-28.696 0-52.04 23.346-52.04 52.04s23.344 52.039 52.04 52.039 52.041-23.345 52.041-52.04c0-28.693-23.346-52.038-52.041-52.038m80.627 143.117a10.427 10.427 0 0 1-7.395-3.062l-36.065-36.063c-4.083-4.083-4.083-10.704 0-14.788 4.085-4.082 10.704-4.082 14.789 0l36.065 36.063c4.083 4.083 4.083 10.704 0 14.788a10.427 10.427 0 0 1-7.394 3.062" fill="#272636" class="transform-group"/></svg>