<svg width="200" height="200" viewBox="0 0 200 200" xmlns="http://www.w3.org/2000/svg"><defs><style>@font-face{font-family:ifont;src:url(//at.alicdn.com/t/font_1442373896_4754455.eot?#iefix) format(&quot;embedded-opentype&quot;),url(//at.alicdn.com/t/font_1442373896_4754455.woff) format(&quot;woff&quot;),url(//at.alicdn.com/t/font_1442373896_4754455.ttf) format(&quot;truetype&quot;),url(//at.alicdn.com/t/font_1442373896_4754455.svg#ifont) format(&quot;svg&quot;)}</style></defs><path d="M167.927 49.949L117.876 100l50.051 50.051c1.787 1.787 3.576 5.363 3.576 8.938 0 7.15-5.363 12.513-12.513 12.513-3.576 0-7.15-1.788-8.938-3.576l-50.051-50.051-50.051 50.051c-1.787 1.787-5.363 3.576-8.938 3.576-7.15 0-12.513-5.363-12.513-12.513 0-3.576 1.788-7.15 3.576-8.938L82.126 100 32.075 49.949c-1.787-1.787-3.576-5.363-3.576-8.938 0-7.15 5.363-12.513 12.513-12.513 3.576 0 7.15 1.788 8.938 3.576l50.051 50.051 50.051-50.051c1.787-1.787 5.363-3.576 8.938-3.576 7.15 0 12.513 5.363 12.513 12.513 0 3.576-1.788 7.15-3.576 8.938z" fill="#272636" class="transform-group"/></svg>