<svg width="200" height="200" viewBox="0 0 200 200" xmlns="http://www.w3.org/2000/svg"><defs><style>@font-face{font-family:ifont;src:url(//at.alicdn.com/t/font_1442373896_4754455.eot?#iefix) format(&quot;embedded-opentype&quot;),url(//at.alicdn.com/t/font_1442373896_4754455.woff) format(&quot;woff&quot;),url(//at.alicdn.com/t/font_1442373896_4754455.ttf) format(&quot;truetype&quot;),url(//at.alicdn.com/t/font_1442373896_4754455.svg#ifont) format(&quot;svg&quot;)}</style></defs><path d="M158.274 114.805c-4.58 0-9.702 3.747-9.702 8.762v36.17c0 6.477-5.36 11.746-11.95 11.746H63.378c-6.59 0-11.95-5.268-11.95-11.746v-36.17c0-.394.007-.778.015-1.191.044-2.212.089-4.5-1.49-6.111-.964-.983-2.267-1.46-3.982-1.46-4.323 0-10.858 3.494-10.858 8.762v45.006c0 10.6 8.732 19.224 19.464 19.224h90.845c10.733 0 19.465-8.624 19.465-19.224v-45.006c0-1.03 0-3.172-.8-5.073-1.014-2.413-3.024-3.69-5.813-3.69zm26.7-22.363l-74.714-73.67c-1.825-2.05-6.552-5.76-9.602-5.97a5.057 5.057 0 0 0-1.282-.161c-3.639 0-7.582 3.822-9.617 6.112L15.027 92.442a8.653 8.653 0 0 0-2.607 6.208c0 2.347.926 4.552 2.607 6.208a8.845 8.845 0 0 0 6.247 2.553 8.834 8.834 0 0 0 6.245-2.553L100 33.397l72.48 71.46a8.837 8.837 0 0 0 6.246 2.554 8.844 8.844 0 0 0 6.248-2.553 8.66 8.66 0 0 0 2.606-6.21 8.654 8.654 0 0 0-2.607-6.206z" fill="#272636" class="transform-group"/></svg>