<svg width="200" height="200" viewBox="0 0 200 200" xmlns="http://www.w3.org/2000/svg"><defs><style>@font-face{font-family:ifont;src:url(//at.alicdn.com/t/font_1442373896_4754455.eot?#iefix) format(&quot;embedded-opentype&quot;),url(//at.alicdn.com/t/font_1442373896_4754455.woff) format(&quot;woff&quot;),url(//at.alicdn.com/t/font_1442373896_4754455.ttf) format(&quot;truetype&quot;),url(//at.alicdn.com/t/font_1442373896_4754455.svg#ifont) format(&quot;svg&quot;)}</style></defs><path d="M82.854 150.018c17.915 0 34.153-7.05 46.2-18.466l.073.09a8.331 8.331 0 0 1 1.119-1.405 8.337 8.337 0 0 1 11.782 0l55.587 55.55c3.254 3.251 3.254 8.525 0 11.777s-8.528 3.25-11.782 0L136.11 147.87c-14.36 11.726-32.664 18.814-52.66 18.814-46.063 0-83.4-37.317-83.4-83.345S37.388-.009 83.448-.009s83.403 37.317 83.403 83.349c0 9.073-1.577 17.747-4.268 25.922-.61 3.994-4.036 7.068-8.204 7.068a8.328 8.328 0 0 1-8.33-8.328l-.075-.772c0-.853.166-1.66.403-2.436l-.041-.015c2.383-6.881 3.738-14.24 3.738-21.933 0-37.1-30.095-67.176-67.22-67.176-37.12 0-67.216 30.076-67.216 67.176-.002 37.096 30.092 67.172 67.215 67.172z" fill="#272636" class="transform-group"/></svg>