<svg width="200" height="200" viewBox="0 0 200 200" xmlns="http://www.w3.org/2000/svg"><defs><style>@font-face{font-family:ifont;src:url(//at.alicdn.com/t/font_1442373896_4754455.eot?#iefix) format(&quot;embedded-opentype&quot;),url(//at.alicdn.com/t/font_1442373896_4754455.woff) format(&quot;woff&quot;),url(//at.alicdn.com/t/font_1442373896_4754455.ttf) format(&quot;truetype&quot;),url(//at.alicdn.com/t/font_1442373896_4754455.svg#ifont) format(&quot;svg&quot;)}</style></defs><path d="M159.638 57.513c0-31.763-25.738-57.5-57.488-57.5s-57.5 25.75-57.5 57.5c0 21.387 11.813 39.825 29.138 49.737-33.063 10.675-57.175 41.175-58.35 77.525H27.35c1.438-38.288 32.563-68.975 71.063-69.638l1.425-.337c.787.025 1.537.237 2.337.237 31.738-.025 57.463-25.775 57.463-57.525zM102.15 101.25c-24.163 0-43.75-19.575-43.75-43.738s19.588-43.75 43.75-43.75 43.75 19.588 43.75 43.75-19.6 43.738-43.75 43.738zm50.838 22.7c-1.1-1.212-2.65-2.012-4.425-2.012-3.313 0-6 2.7-6 6 0 2.025 1.075 3.725 2.612 4.825l-.063.075-.024.025a72.338 72.338 0 0 1 27.725 52.037h11.937c-1.512-24.688-13.562-46.5-31.762-60.95z" fill="#272636" class="transform-group"/></svg>