<svg width="200" height="200" viewBox="0 0 200 200" xmlns="http://www.w3.org/2000/svg"><defs><style>@font-face{font-family:ifont;src:url(//at.alicdn.com/t/font_1442373896_4754455.eot?#iefix) format(&quot;embedded-opentype&quot;),url(//at.alicdn.com/t/font_1442373896_4754455.woff) format(&quot;woff&quot;),url(//at.alicdn.com/t/font_1442373896_4754455.ttf) format(&quot;truetype&quot;),url(//at.alicdn.com/t/font_1442373896_4754455.svg#ifont) format(&quot;svg&quot;)}</style></defs><path d="M166.45 120.744c-11.61 0-21.022-9.414-21.022-21.026s9.412-21.025 21.023-21.025c11.61 0 21.022 9.413 21.022 21.025s-9.413 21.026-21.022 21.026zm-66.564 0c-11.61 0-21.022-9.414-21.022-21.026s9.412-21.025 21.022-21.025c11.61 0 21.022 9.413 21.022 21.025s-9.411 21.026-21.022 21.026zm-66.564 0c-11.61 0-21.023-9.414-21.023-21.026s9.412-21.025 21.023-21.025c11.61 0 21.022 9.413 21.022 21.025s-9.412 21.026-21.022 21.026z" fill="#272636" class="transform-group"/></svg>