<svg width="200" height="200" viewBox="0 0 200 200" xmlns="http://www.w3.org/2000/svg"><defs><style>@font-face{font-family:ifont;src:url(//at.alicdn.com/t/font_1442373896_4754455.eot?#iefix) format(&quot;embedded-opentype&quot;),url(//at.alicdn.com/t/font_1442373896_4754455.woff) format(&quot;woff&quot;),url(//at.alicdn.com/t/font_1442373896_4754455.ttf) format(&quot;truetype&quot;),url(//at.alicdn.com/t/font_1442373896_4754455.svg#ifont) format(&quot;svg&quot;)}</style></defs><path d="M65.433 196.811c-7.735 0-14.033-6.297-14.033-14.033s6.298-14.033 14.033-14.033c7.745 0 14.042 6.298 14.042 14.033s-6.297 14.033-14.042 14.033zm96.578 0c-7.74 0-14.037-6.297-14.037-14.033s6.297-14.033 14.037-14.033c7.744 0 14.046 6.298 14.046 14.033s-6.306 14.033-14.046 14.033zm-98.36-34.496c-10.05 0-18.897-7.951-20.127-18.099l-11.7-82.342-6.669-38.549c-.379-3.118-3.29-5.874-6.227-5.874h-8.79c-3.933 0-7.135-3.202-7.135-7.136s3.206-7.13 7.136-7.13h8.79c10.165 0 19.104 7.937 20.348 18.072l6.655 38.395L57.68 142.39c.357 3 3.15 5.659 5.972 5.659h112.053c3.933 0 7.13 3.206 7.13 7.14 0 3.929-3.201 7.122-7.13 7.122H63.652zm8.622-27.59c-3.713 0-6.84-2.901-7.104-6.615a7.067 7.067 0 0 1 1.715-5.186 7.056 7.056 0 0 1 4.869-2.448l93.627-6.897c3.22-.027 6.064-2.483 6.444-5.583l10.862-62.135c.273-2.377-.397-4.811-1.685-6.276-.838-.952-1.896-1.437-3.131-1.437H58.43c-3.938 0-7.14-3.202-7.14-7.136s3.206-7.135 7.14-7.135h119.44c5.336 0 10.245 2.218 13.817 6.249 4.075 4.595 5.94 11.074 5.12 17.781l-10.87 62.144c-.596 4.807-2.978 9.252-6.713 12.586-3.758 3.334-8.485 5.178-13.319 5.195l-93.107 6.876-.525.017z" fill="#272636" class="transform-group"/></svg>