<?xml version="1.0" encoding="utf-8"?>
<!-- Generator: Adobe Illustrator 18.0.0, SVG Export Plug-In . SVG Version: 6.00 Build 0)  -->
<!DOCTYPE svg PUBLIC "-//W3C//DTD SVG 1.1//EN" "http://www.w3.org/Graphics/SVG/1.1/DTD/svg11.dtd">
<svg version="1.1" id="图层_1" xmlns="http://www.w3.org/2000/svg" xmlns:xlink="http://www.w3.org/1999/xlink" x="0px" y="0px"
	 viewBox="0 0 200 200" enable-background="new 0 0 200 200" xml:space="preserve">
<g>
	<path fill="#333333" d="M142.6,103.9c0.1-0.2,0.3-0.4,0.4-0.6c1.7-3.6,1.2-7.9-1.9-10.8l-69-65.3c-3.8-3.6-9.7-3.4-13.3,0.4
		c-3.6,3.8-3.4,9.7,0.4,13.3l61.9,58.6l-61.7,59.4c-3.7,3.6-3.8,9.5-0.2,13.3c1.8,1.9,4.3,2.9,6.8,2.9c2.3,0,4.7-0.9,6.5-2.6
		l68.4-65.9c0.1-0.1,0.2-0.3,0.3-0.5c0.1-0.1,0.2-0.2,0.3-0.3C142,105.2,142.3,104.6,142.6,103.9z"/>
</g>
</svg>
