<?xml version="1.0" encoding="utf-8"?>
<!-- Generator: Adobe Illustrator 18.0.0, SVG Export Plug-In . SVG Version: 6.00 Build 0)  -->
<!DOCTYPE svg PUBLIC "-//W3C//DTD SVG 1.1//EN" "http://www.w3.org/Graphics/SVG/1.1/DTD/svg11.dtd">
<svg version="1.1" id="图层_1" xmlns="http://www.w3.org/2000/svg" xmlns:xlink="http://www.w3.org/1999/xlink" x="0px" y="0px"
	 viewBox="0 0 200 200" enable-background="new 0 0 200 200" xml:space="preserve">
<g>
	<path fill="#333333" d="M130,72.1c-2.5-11.3-11.2-20.6-23.1-23.1c-13.1-3.1-25.6,1.9-33.1,12.5c-5.6,8.1,0,11.9,3.1,14.4
		c1.2,0.6,2.5,1.9,4.4,3.8c2.5,2.5,6.2,1.9,8.8-0.6c2.5-2.5,1.9-6.2-0.6-8.8c-1.9-1.2-3.1-2.5-4.4-3.8c4.4-5,11.9-7.5,18.8-5.6
		c6.9,1.9,11.9,6.9,13.8,13.7c1.9,9.4-2.5,18.1-10.6,21.9c-8.1,3.8-13.8,11.2-13.8,20v4.4c0,3.8,2.5,6.2,6.2,6.2l0,0
		c3.1,0,6.2-2.5,6.2-6.2v-4.4c0-3.8,2.5-7.5,6.2-8.8C125.6,102.1,133.1,87.1,130,72.1z"/>
	<path fill="#333333" d="M93.8,141.5c-1.9,1.9-2.5,4.4-2.5,6.9s1.2,5,2.5,6.9c1.9,1.9,4.4,2.5,6.9,2.5s5-1.2,6.9-2.5
		c1.9-1.9,2.5-4.4,2.5-6.9s-1.2-5-2.5-6.9C103.8,137.8,97.5,137.8,93.8,141.5z"/>
	<path fill="#333333" d="M100,12.1c-15.6,0-31.2,4.4-44.4,12.5c-7.5-8.8-18.7-13.1-31.2-13.1c-1.9,0-4.4,1.2-5.6,3.1s-1.2,4.4,0,6.2
		c0,0,6.2,10.6,8.1,26.9c0.6,3.1,3.1,5.6,6.2,5.6h0.6c3.8-0.6,6.2-3.1,6.2-6.9c-1.2-8.1-3.1-15.6-5-20.6c5,1.2,10,4.4,13.8,10l0,0
		l0,0c0.6,0.6,0.6,0.6,0.6,1.2l0.6,0.6c0.6,0,0.6,0.6,1.2,0.6c0.6,0,0.6,0.6,1.2,0.6c0.6,0,0.6,0,1.2,0c0.6,0,0.6,0,1.2,0
		c0.6,0,0.6,0,1.2-0.6c0.6,0,0.6,0,1.2-0.6l0,0l0,0C70,29,85,24.6,100,24.6c41.2,0,75,33.8,75,75s-33.8,75-75,75s-75-33.8-75-75
		C25,89,26.9,79,31.2,69c1.2-3.1,0-6.9-3.1-8.1s-6.9,0-8.1,3.1c-5,11.2-7.5,23.1-7.5,35.6c0,48.1,39.4,87.5,87.5,87.5
		s87.5-39.4,87.5-87.5S148.1,12.1,100,12.1z"/>
</g>
</svg>
