<?xml version="1.0" encoding="utf-8"?>
<!-- Generator: Adobe Illustrator 18.0.0, SVG Export Plug-In . SVG Version: 6.00 Build 0)  -->
<!DOCTYPE svg PUBLIC "-//W3C//DTD SVG 1.1//EN" "http://www.w3.org/Graphics/SVG/1.1/DTD/svg11.dtd">
<svg version="1.1" id="图层_1" xmlns="http://www.w3.org/2000/svg" xmlns:xlink="http://www.w3.org/1999/xlink" x="0px" y="0px"
	 viewBox="0 0 200 200" enable-background="new 0 0 200 200" xml:space="preserve">
<g>
	<path fill="#333333" d="M131.2,18.1c-1.9-0.6-4.4-1.2-6.2-1.9c-8.1-2.5-16.2-3.8-25-3.8c-10.6,0-21.2,1.9-31.2,5.6
		c-1.9,0.6-4.4,1.9-6.2,2.5c-2.5,1.9-5,3.1-6.9,4.4c-3.7-3.8-7.5-6.9-11.9-8.8c-1.9-1.2-4.4-1.9-6.2-2.5c-4.4-1.2-8.8-1.9-13.1-1.9
		c-1.9,0-4.4,1.2-5.6,3.1c-1.2,1.9-1.2,4.4,0,6.2c0,0,6.2,10,8.1,25L20,63.8c-5,11.9-7.5,23.8-7.5,36.2c0,23.7,9.4,45,25,61.2
		c1.9,1.9,4.4,3.8,6.2,5.6c5.6,5,11.9,8.7,18.8,11.9c1.9,1.3,4.4,1.9,6.2,2.5c10,3.8,20,5.6,31.2,5.6c8.8,0,16.9-1.2,25-3.8
		c1.9-0.6,4.4-1.2,6.2-1.9c32.5-12.5,56.2-44.4,56.2-81.9S163.8,31.2,131.2,18.1z M107.5,151.9c-1.9,1.9-4.4,2.5-6.9,2.5
		c-2.5,0-5-1.3-6.9-2.5c-1.9-1.9-2.5-4.4-2.5-6.9c0-2.5,1.2-5,2.5-6.9c3.8-3.8,10-3.8,13.1,0c1.9,1.9,2.5,4.4,2.5,6.9
		C110.6,147.5,109.4,150,107.5,151.9z M112.5,104.4c-3.8,1.2-5.6,5-6.2,8.7v5c0,3.8-3.1,7.5-6.2,7.5l0,0c-3.8,0-6.2-3.8-6.2-7.5v-5
		c0-8.7,5.6-16.9,13.8-20.6c8.7-3.8,13.1-12.5,10.6-21.9c-1.2-6.9-6.9-12.5-13.8-13.7C97.5,55,90,57.5,85.6,62.5
		c1.2,0.6,2.5,1.9,4.4,3.8c2.5,2.5,3.1,6.2,0.6,8.8c-2.5,2.5-6.2,3.1-8.8,0.6c-1.9-1.9-3.1-2.5-4.4-3.8c-3.1-2.5-8.7-6.9-3.1-14.4
		C81.9,46.9,95,41.9,107.5,45c11.2,2.5,20.6,11.9,23.1,23.1C133.8,83.1,126.3,98.1,112.5,104.4z"/>
</g>
</svg>
