<?xml version="1.0" encoding="utf-8"?>
<!-- Generator: Adobe Illustrator 18.0.0, SVG Export Plug-In . SVG Version: 6.00 Build 0)  -->
<!DOCTYPE svg PUBLIC "-//W3C//DTD SVG 1.1//EN" "http://www.w3.org/Graphics/SVG/1.1/DTD/svg11.dtd">
<svg version="1.1" id="图层_1" xmlns="http://www.w3.org/2000/svg" xmlns:xlink="http://www.w3.org/1999/xlink" x="0px" y="0px"
	 viewBox="0 0 200 200" enable-background="new 0 0 200 200" xml:space="preserve">
<g>
	<path fill="#333333" d="M193.8,100c0-1.1-0.2-2.1-0.2-2.2c0-0.6-0.2-1.6-0.4-2.1c0-0.1-0.1-0.3-0.2-0.4c-0.1-0.3-0.2-0.6-0.3-0.8
		c-17.3-37.8-54.5-63.2-92.6-63.2c-38.1,0-75.3,25.4-92.5,63c-0.2,0.4-0.3,0.8-0.4,1.1c0,0.1-0.1,0.2-0.1,0.3
		c-0.3,1-0.3,1.7-0.3,1.5c-0.2,0.7-0.3,2.2-0.3,2.2c0,0.4,0,0.8,0,1.2c0,0,0.1,1.3,0.2,1.5c0,0.4,0.1,0.9,0.2,1.4h0
		c0.1,0.4,0.2,0.8,0.4,1.2c0.1,0.3,0.2,0.6,0.3,0.8c17.3,37.8,54.5,63.3,92.6,63.3c38.1,0,75.3-25.4,92.4-62.8
		c0.3-0.5,0.4-0.9,0.6-1.3c0-0.1,0.1-0.2,0.1-0.3c0.3-0.9,0.4-1.6,0.3-1.6c0,0,0,0,0,0C193.6,102,193.8,101.1,193.8,100z M100,131.2
		c-17.2,0-31.2-14-31.2-31.2s14-31.2,31.2-31.2s31.2,14,31.2,31.2S117.2,131.2,100,131.2z"/>
</g>
</svg>
