<?xml version="1.0" encoding="utf-8"?>
<!-- Generator: Adobe Illustrator 18.0.0, SVG Export Plug-In . SVG Version: 6.00 Build 0)  -->
<!DOCTYPE svg PUBLIC "-//W3C//DTD SVG 1.1//EN" "http://www.w3.org/Graphics/SVG/1.1/DTD/svg11.dtd">
<svg version="1.1" id="图层_1" xmlns="http://www.w3.org/2000/svg" xmlns:xlink="http://www.w3.org/1999/xlink" x="0px" y="0px"
	 viewBox="0 0 200 200" enable-background="new 0 0 200 200" xml:space="preserve">
<g>
	<path fill="#333333" d="M168.8,40.5H100c0-10.3-8.4-18.8-18.8-18.8H68.8C58.4,21.8,50,30.2,50,40.5H31.2
		c-10.3,0-18.8,8.4-18.8,18.8v100c0,10.3,8.4,18.8,18.8,18.8h137.5c10.3,0,18.8-8.4,18.8-18.8v-100
		C187.5,48.9,179.1,40.5,168.8,40.5z M100,146.8c-20.7,0-37.5-16.8-37.5-37.5S79.3,71.8,100,71.8s37.5,16.8,37.5,37.5
		S120.7,146.8,100,146.8z M159.4,84.2c-5.2,0-9.4-4.2-9.4-9.4s4.2-9.4,9.4-9.4s9.4,4.2,9.4,9.4S164.5,84.2,159.4,84.2z"/>
</g>
</svg>
