<?xml version="1.0" encoding="utf-8"?>
<!-- Generator: Adobe Illustrator 18.0.0, SVG Export Plug-In . SVG Version: 6.00 Build 0)  -->
<!DOCTYPE svg PUBLIC "-//W3C//DTD SVG 1.1//EN" "http://www.w3.org/Graphics/SVG/1.1/DTD/svg11.dtd">
<svg version="1.1" id="图层_1" xmlns="http://www.w3.org/2000/svg" xmlns:xlink="http://www.w3.org/1999/xlink" x="0px" y="0px"
	 viewBox="0 0 200 200" enable-background="new 0 0 200 200" xml:space="preserve">
<g>
	<path fill="#333333" d="M100,146.8c-20.7,0-37.5-16.8-37.5-37.5S79.3,71.8,100,71.8s37.5,16.8,37.5,37.5S120.7,146.8,100,146.8z
		 M100,84.2c-13.8,0-25,11.2-25,25s11.2,25,25,25s25-11.2,25-25S113.8,84.2,100,84.2z"/>
	<path fill="#333333" d="M168.8,178H31.2c-10.3,0-18.8-8.4-18.8-18.8v-100c0-10.3,8.4-18.8,18.8-18.8H50c3.5,0,6.2,2.8,6.2,6.2
		S53.5,53,50,53H31.2c-3.4,0-6.2,2.8-6.2,6.2v100c0,3.4,2.8,6.2,6.2,6.2h137.5c3.4,0,6.2-2.8,6.2-6.2v-100c0-3.4-2.8-6.2-6.2-6.2
		H100c-3.4,0-6.2-2.8-6.2-6.2s2.8-6.2,6.2-6.2h68.8c10.3,0,18.8,8.4,18.8,18.8v100C187.5,169.6,179.1,178,168.8,178z"/>
	<path fill="#333333" d="M150,68.6c0,5.2,4.2,9.4,9.4,9.4s9.4-4.2,9.4-9.4s-4.2-9.4-9.4-9.4S150,63.4,150,68.6z"/>
	<path fill="#333333" d="M93.8,28c0,3.5-2.8,6.2-6.2,6.2h-25c-3.5,0-6.2-2.8-6.2-6.2l0,0c0-3.5,2.8-6.2,6.2-6.2h25
		C90.9,21.8,93.8,24.5,93.8,28L93.8,28z"/>
</g>
</svg>
