<?xml version="1.0" encoding="utf-8"?>
<!-- Generator: Adobe Illustrator 18.0.0, SVG Export Plug-In . SVG Version: 6.00 Build 0)  -->
<!DOCTYPE svg PUBLIC "-//W3C//DTD SVG 1.1//EN" "http://www.w3.org/Graphics/SVG/1.1/DTD/svg11.dtd">
<svg version="1.1" id="图层_1" xmlns="http://www.w3.org/2000/svg" xmlns:xlink="http://www.w3.org/1999/xlink" x="0px" y="0px"
	 viewBox="0 0 200 200" enable-background="new 0 0 200 200" xml:space="preserve">
<path fill="#333333" d="M68.9,162.5c-6.9,0-12.5,5.6-12.5,12.5s5.6,12.5,12.5,12.5s12.5-5.6,12.5-12.5S75.9,162.5,68.9,162.5
	L68.9,162.5z"/>
<path fill="#333333" d="M156.4,162.5c-6.9,0-12.5,5.6-12.5,12.5s5.6,12.5,12.5,12.5s12.5-5.6,12.5-12.5S163.4,162.5,156.4,162.5
	L156.4,162.5z"/>
<path fill="#333333" d="M183.1,36.8c-3.2-3.6-7.6-5.6-12.4-5.6H45.5L45,28.7c-1.1-9.1-9.1-16.2-18.2-16.2H19c-3.5,0-6.2,2.8-6.2,6.2
	S15.5,25,19,25h7.9c2.7,0,5.5,2.5,5.9,5.5l6,34.9L49.3,140c1.1,9.1,9,16.2,18,16.2h101.6c3.5,0,6.2-2.8,6.2-6.2s-2.8-6.2-6.2-6.2
	H67.3c-2.7,0-5.3-2.5-5.6-5.4l-1-7.3l99.2-6.1c9,0,16.9-7.1,18-15.9l9.9-56.3C188.4,46.7,186.7,40.9,183.1,36.8z"/>
</svg>
