<?xml version="1.0" encoding="utf-8"?>
<!-- Generator: Adobe Illustrator 18.0.0, SVG Export Plug-In . SVG Version: 6.00 Build 0)  -->
<!DOCTYPE svg PUBLIC "-//W3C//DTD SVG 1.1//EN" "http://www.w3.org/Graphics/SVG/1.1/DTD/svg11.dtd">
<svg version="1.1" id="图层_1" xmlns="http://www.w3.org/2000/svg" xmlns:xlink="http://www.w3.org/1999/xlink" x="0px" y="0px"
	 viewBox="0 0 200 200" enable-background="new 0 0 200 200" xml:space="preserve">
<path fill="#333333" d="M68.8,162.5c-6.9,0-12.5,5.6-12.5,12.5s5.6,12.5,12.5,12.5s12.5-5.6,12.5-12.5S75.8,162.5,68.8,162.5
	L68.8,162.5z"/>
<path fill="#333333" d="M156.4,162.5c-6.9,0-12.5,5.6-12.5,12.5s5.6,12.5,12.5,12.5s12.5-5.6,12.5-12.5S163.3,162.5,156.4,162.5
	L156.4,162.5z"/>
<path fill="#333333" d="M168.8,156.2H67.2c-9,0-16.9-7.1-18-16.2L38.6,65.4l-6-34.9c-0.4-3-3.1-5.5-5.9-5.5h-8
	c-3.5,0-6.2-2.8-6.2-6.2s2.8-6.2,6.2-6.2h8c9.1,0,17.1,7.1,18.2,16.2l6,34.7l10.6,74.9c0.3,2.9,3,5.3,5.6,5.3h101.5
	c3.5,0,6.2,2.8,6.2,6.2S172.2,156.2,168.8,156.2z"/>
<path fill="#333333" d="M75,131.2c-3.2,0-6-2.5-6.2-5.8c-0.3-3.4,2.3-6.4,5.8-6.7l84.8-6.2c3.1,0,5.7-2.5,6.1-5.2l9.8-56.3
	c0.2-2.1-0.3-4.4-1.6-5.8c-0.8-0.9-1.8-1.4-3-1.4H62.5c-3.5,0-6.2-2.8-6.2-6.2s2.8-6.2,6.2-6.2h108.2c4.8,0,9.2,2,12.4,5.6
	c3.6,4.1,5.3,9.9,4.6,15.9l-9.8,56.3c-1.1,8.8-9,15.9-18,15.9l-84.3,6.2C75.3,131.2,75.2,131.2,75,131.2z"/>
</svg>
