<?xml version="1.0" encoding="utf-8"?>
<!-- Generator: Adobe Illustrator 18.0.0, SVG Export Plug-In . SVG Version: 6.00 Build 0)  -->
<!DOCTYPE svg PUBLIC "-//W3C//DTD SVG 1.1//EN" "http://www.w3.org/Graphics/SVG/1.1/DTD/svg11.dtd">
<svg version="1.1" id="图层_1" xmlns="http://www.w3.org/2000/svg" xmlns:xlink="http://www.w3.org/1999/xlink" x="0px" y="0px"
	 viewBox="0 0 200 200" enable-background="new 0 0 200 200" xml:space="preserve">
<g>
	<path fill="#333333" d="M108.9,100.2l51.8-51.5c2.4-2.4,2.5-6.4,0-8.8c-2.4-2.5-6.4-2.5-8.8,0L100,91.4L48.7,39.9
		c-2.4-2.4-6.4-2.5-8.8,0c-2.4,2.4-2.5,6.4,0,8.8l51.4,51.5l-51.8,51.5c-2.5,2.4-2.5,6.4,0,8.8c1.2,1.2,2.8,1.8,4.4,1.8
		c1.6,0,3.2-0.6,4.4-1.8l51.8-51.5l51.8,52c1.2,1.2,2.8,1.8,4.4,1.8c1.6,0,3.2-0.6,4.4-1.8c2.4-2.4,2.4-6.4,0-8.8L108.9,100.2z"/>
</g>
</svg>
