<?xml version="1.0" encoding="utf-8"?>
<!-- Generator: Adobe Illustrator 18.0.0, SVG Export Plug-In . SVG Version: 6.00 Build 0)  -->
<!DOCTYPE svg PUBLIC "-//W3C//DTD SVG 1.1//EN" "http://www.w3.org/Graphics/SVG/1.1/DTD/svg11.dtd">
<svg version="1.1" id="图层_1" xmlns="http://www.w3.org/2000/svg" xmlns:xlink="http://www.w3.org/1999/xlink" x="0px" y="0px"
	 viewBox="0 0 200 200" enable-background="new 0 0 200 200" xml:space="preserve">
<g>
	<path fill="#333333" d="M68.8,112.5h-25c-3.5,0-6.2-2.8-6.2-6.2c0-3.4,2.8-6.2,6.2-6.2h18.8V81.2c0-3.4,2.8-6.2,6.2-6.2
		s6.2,2.8,6.2,6.2v25C75,109.7,72.2,112.5,68.8,112.5z"/>
	<path fill="#333333" d="M137.1,130.2c-12.1,0-22.2,8.5-24.9,19.8H88.1c-2.6-11.3-12.8-19.8-24.9-19.8c-14.1,0-25.6,11.5-25.6,25.6
		c0,14.1,11.5,25.6,25.6,25.6c11.8,0,21.6-8.1,24.6-19h24.7c2.9,10.9,12.8,18.9,24.6,18.9c14.1,0,25.6-11.5,25.6-25.6
		S151.2,130.2,137.1,130.2z M63.2,169c-7.2,0-13.1-5.9-13.1-13.1c0-7.2,5.9-13.1,13.1-13.1c7.2,0,13.1,5.9,13.1,13.1
		C76.3,163.1,70.5,169,63.2,169z M137.1,168.9c-7.2,0-13.1-5.9-13.1-13.1c0-7.2,5.9-13.1,13.1-13.1c7.2,0,13.1,5.9,13.1,13.1
		C150.2,163.1,144.4,168.9,137.1,168.9z"/>
	<path fill="#333333" d="M168.8,18.8H78.1c-8.6,0-15.6,7-15.6,15.6v18.1l-38,19.1c-0.3,0.1-0.5,0.3-0.8,0.5
		c-7.1,5-10.9,12.7-10.9,21.8v62.9c0,3.5,2.8,6.2,6.2,6.2s6.2-2.8,6.2-6.2V93.8c0-4.9,1.8-8.7,5.3-11.3l41-20.6
		c0.3-0.1,0.5-0.4,0.7-0.6c0.4-0.3,0.7-0.5,1-0.8c0.3-0.3,0.5-0.6,0.7-1c0.2-0.3,0.4-0.7,0.6-1c0.2-0.4,0.2-0.9,0.3-1.3
		c0-0.3,0.2-0.6,0.2-0.9V34.3c0-1.7,1.4-3.1,3.1-3.1h90.7c3.4,0,6.2,2.8,6.2,6.3v118.7c0,3.5,2.8,6.2,6.2,6.2s6.2-2.8,6.2-6.2V37.6
		C187.5,27.2,179.1,18.8,168.8,18.8z"/>
</g>
</svg>
