<?xml version="1.0" encoding="utf-8"?>
<!-- Generator: Adobe Illustrator 18.0.0, SVG Export Plug-In . SVG Version: 6.00 Build 0)  -->
<!DOCTYPE svg PUBLIC "-//W3C//DTD SVG 1.1//EN" "http://www.w3.org/Graphics/SVG/1.1/DTD/svg11.dtd">
<svg version="1.1" id="图层_1" xmlns="http://www.w3.org/2000/svg" xmlns:xlink="http://www.w3.org/1999/xlink" x="0px" y="0px"
	 viewBox="0 0 200 200" enable-background="new 0 0 200 200" xml:space="preserve">
<g>
	<path fill="#333333" d="M79.2,182.1c-1.7,0-3.4-0.7-4.7-2.1c-16.3-18.2-42.6-18.4-43.1-18.4c0,0,0,0,0,0c-3.4,0-6.2-2.8-6.3-6.2
		c0-3.4,2.7-6.3,6.2-6.3c1.3-0.1,32.4,0,52.5,22.6c2.3,2.6,2.1,6.5-0.5,8.8C82.2,181.5,80.7,182.1,79.2,182.1z"/>
	<path fill="#333333" d="M121.1,182c-1.5,0-3-0.6-4.3-1.7c-2.5-2.3-2.7-6.3-0.3-8.8c20.9-22.6,51.3-22.5,52.5-22.5
		c3.5,0,6.2,2.9,6.2,6.3c0,3.4-2.8,6.2-6.2,6.2c0,0,0,0,0,0l0,0c-0.5,0-26.3,0.2-43.2,18.5C124.5,181.4,122.8,182,121.1,182z"/>
	<path fill="#333333" d="M110.1,150.3H90.3c-0.6,0-1.2-0.1-1.8-0.3c-21.1-2.7-39.1-15-50.7-34.7c-13.4-22.8-16.5-52.5-7.7-73.7
		c1-2.3,3.2-3.8,5.6-3.8l1.9,0c11.9,0,23,2.3,33.1,6.7C78.1,31.1,86.5,21,95.7,14.3c0.5-0.4,1-0.8,1.7-1l0,0
		c1.9-0.8,4.2-0.7,5.9,0.5c0.3,0.2,0.6,0.4,0.9,0.7c9.2,6.8,17.3,16.8,24.7,30.4c10.3-4.7,21.7-7,33.9-7l1.9,0
		c2.5,0,4.7,1.6,5.6,3.8c8.9,21.2,5.8,50.8-7.7,73.7C151,135,133.1,147.3,111.9,150C111.3,150.2,110.7,150.3,110.1,150.3z
		 M91.4,137.8H109c0.1,0,0.3,0,0.4-0.1c22.6-2.5,35.6-17,42.5-28.7c10.6-17.9,13.8-41.4,8.3-58.7c-11.4,0.4-21.8,3.2-31,8.3
		c-1.5,0.8-3.3,1-4.9,0.5c-1.6-0.5-3-1.7-3.8-3.2c-6.3-13-13.1-22.5-20.7-29C92.3,33.4,85.3,43,79.1,55.6c-0.8,1.5-2.1,2.7-3.7,3.2
		c-1.6,0.5-3.4,0.3-4.9-0.5c-9-4.9-19.2-7.6-30.3-7.9C34.8,67.6,38,91,48.5,109c6.9,11.7,19.9,26.2,42.4,28.7
		C91.1,137.7,91.3,137.7,91.4,137.8z"/>
	<path fill="#333333" d="M100.2,187.5c-3.5,0-6.2-2.8-6.2-6.2V144c0-3.5,2.8-6.2,6.2-6.2c3.4,0,6.2,2.8,6.2,6.2v37.2
		C106.4,184.7,103.6,187.5,100.2,187.5z"/>
</g>
</svg>
