<?xml version="1.0" encoding="utf-8"?>
<!-- Generator: Adobe Illustrator 18.0.0, SVG Export Plug-In . SVG Version: 6.00 Build 0)  -->
<!DOCTYPE svg PUBLIC "-//W3C//DTD SVG 1.1//EN" "http://www.w3.org/Graphics/SVG/1.1/DTD/svg11.dtd">
<svg version="1.1" id="图层_1" xmlns="http://www.w3.org/2000/svg" xmlns:xlink="http://www.w3.org/1999/xlink" x="0px" y="0px"
	 viewBox="0 0 200 200" enable-background="new 0 0 200 200" xml:space="preserve">
<g>
	<path fill="#333333" d="M168.8,81.2c0-37.9-30.8-68.8-68.8-68.8S31.2,43.3,31.2,81.2c0,35.8,27.5,65.3,62.6,68.4
		c0,0.1-0.1,0.2-0.1,0.3v12.5h-25c-3.4,0-6.2,2.8-6.2,6.2s2.8,6.2,6.2,6.2h25v6.2c0,3.5,2.8,6.2,6.2,6.2s6.2-2.8,6.2-6.2V175h25
		c3.5,0,6.2-2.8,6.2-6.2s-2.8-6.2-6.2-6.2h-25V150c0-0.1-0.1-0.2-0.1-0.3C141.2,146.5,168.8,117.1,168.8,81.2z M100,137.5
		c-31,0-56.2-25.2-56.2-56.2C43.8,50.2,69,25,100,25c31,0,56.2,25.2,56.2,56.2C156.2,112.3,131,137.5,100,137.5z"/>
</g>
</svg>
