<?xml version="1.0" encoding="utf-8"?>
<!-- Generator: Adobe Illustrator 18.0.0, SVG Export Plug-In . SVG Version: 6.00 Build 0)  -->
<!DOCTYPE svg PUBLIC "-//W3C//DTD SVG 1.1//EN" "http://www.w3.org/Graphics/SVG/1.1/DTD/svg11.dtd">
<svg version="1.1" id="图层_1" xmlns="http://www.w3.org/2000/svg" xmlns:xlink="http://www.w3.org/1999/xlink" x="0px" y="0px"
	 viewBox="0 0 200 200" enable-background="new 0 0 200 200" xml:space="preserve">
<g>
	<path fill="#333333" d="M191.8,83L112,20.4c-6.8-5.4-17.5-5.4-24.3,0L8.4,83c-2.7,2.1-3.2,6.1-1,8.8c2.1,2.7,6.1,3.2,8.8,1l2.6-2
		v75.7c0,10.7,11.1,18.8,21.1,18.8h125c9.8,0,16.4-7.5,16.4-18.8V90.6l2.8,2.2c1.2,0.9,2.5,1.3,3.9,1.3c1.9,0,3.7-0.8,4.9-2.4
		C195,89.1,194.5,85.1,191.8,83z M118.8,159.7v13.1h-12.5H93.8H81.2v-13.1v-21.9c0-7.3,5.9-15.1,18.8-15.1
		c12.9,0,18.8,7.8,18.8,15.1V159.7z"/>
</g>
</svg>
