<?xml version="1.0" encoding="utf-8"?>
<!-- Generator: Adobe Illustrator 18.0.0, SVG Export Plug-In . SVG Version: 6.00 Build 0)  -->
<!DOCTYPE svg PUBLIC "-//W3C//DTD SVG 1.1//EN" "http://www.w3.org/Graphics/SVG/1.1/DTD/svg11.dtd">
<svg version="1.1" id="图层_1" xmlns="http://www.w3.org/2000/svg" xmlns:xlink="http://www.w3.org/1999/xlink" x="0px" y="0px"
	 viewBox="0 0 200 200" enable-background="new 0 0 200 200" xml:space="preserve">
<g>
	<path fill="#333333" d="M191.4,83l-79.2-62.6c-6.8-5.4-17.5-5.4-24.3,0L8.6,83c-2.7,2.1-3.2,6.1-1,8.8c2.1,2.7,6,3.2,8.7,1l2.5-2
		v75.7c0,10.7,11.3,18.8,21.2,18.8h125c9.8,0,16.2-7.5,16.2-18.8V91.1l2.3,1.7c1.1,0.9,2.6,1.3,3.9,1.3c1.8,0,3.7-0.8,4.9-2.4
		C194.5,89.1,194.1,85.2,191.4,83z M93.8,172.8v-34.7c0-1.7,3.1-2.6,6.2-2.6s6.2,0.9,6.2,2.6v34.7H93.8z M168.8,166.5
		c0,4.1-1.1,6.2-3.8,6.2h-46.1c0-0.1-0.1-0.2-0.1-0.3v-34.4c0-7.3-5.9-15.1-18.8-15.1s-18.8,7.8-18.8,15.1v34.4
		c0,0.1,0.2,0.2,0.2,0.3H40c-3.9,0-8.8-3.4-8.8-6.2V80.9l64.2-50.7c2.3-1.8,6.5-1.8,8.8,0l64.5,51V166.5z"/>
</g>
</svg>
