<?xml version="1.0" encoding="utf-8"?>
<!-- Generator: Adobe Illustrator 18.0.0, SVG Export Plug-In . SVG Version: 6.00 Build 0)  -->
<!DOCTYPE svg PUBLIC "-//W3C//DTD SVG 1.1//EN" "http://www.w3.org/Graphics/SVG/1.1/DTD/svg11.dtd">
<svg version="1.1" id="图层_1" xmlns="http://www.w3.org/2000/svg" xmlns:xlink="http://www.w3.org/1999/xlink" x="0px" y="0px"
	 viewBox="0 0 200 200" enable-background="new 0 0 200 200" xml:space="preserve">
<g>
	<path fill="#333333" d="M181,23.6c0-0.3-0.1-0.5-0.2-0.8c0,0,0,0,0,0c-0.2-0.4-0.4-0.8-0.7-1.1c0,0,0,0,0,0
		c-0.2-0.2-0.2-0.5-0.4-0.8c0,0-0.1-0.1-0.1-0.1c-0.3-0.3-0.7-0.6-1.1-0.8c0,0,0,0,0,0c-0.3-0.2-0.6-0.4-0.9-0.6c0,0,0,0,0,0
		c-0.8-0.3-1.7-0.6-2.6-0.6h-43.8c-3.5,0-6.2,2.8-6.2,6.2s2.8,6.2,6.2,6.2h27.2l-29.8,26.3c-11.5-8.6-25.7-13.8-41.1-13.8
		c-37.9,0-68.8,30.8-68.8,68.8s30.8,68.8,68.8,68.8s68.8-30.8,68.8-68.8c0-17.9-7-34.3-18.3-46.5l30.8-27.1v23.7
		c0,3.4,2.8,6.2,6.2,6.2s6.2-2.8,6.2-6.2V25C181.2,24.5,181.1,24.1,181,23.6z M143.8,112.5c0,31-25.2,56.2-56.2,56.2
		c-31,0-56.2-25.2-56.2-56.2c0-31,25.2-56.2,56.2-56.2C118.5,56.2,143.8,81.5,143.8,112.5z"/>
</g>
</svg>
