<?xml version="1.0" encoding="utf-8"?>
<!-- Generator: Adobe Illustrator 18.0.0, SVG Export Plug-In . SVG Version: 6.00 Build 0)  -->
<!DOCTYPE svg PUBLIC "-//W3C//DTD SVG 1.1//EN" "http://www.w3.org/Graphics/SVG/1.1/DTD/svg11.dtd">
<svg version="1.1" id="图层_1" xmlns="http://www.w3.org/2000/svg" xmlns:xlink="http://www.w3.org/1999/xlink" x="0px" y="0px"
	 viewBox="0 0 200 200" enable-background="new 0 0 200 200" xml:space="preserve">
<g>
	<path fill="#333333" d="M125,81.2H75c-3.4,0-6.2-2.8-6.2-6.2s2.8-6.2,6.2-6.2h50c3.5,0,6.2,2.8,6.2,6.2S128.5,81.2,125,81.2z"/>
	<path fill="#333333" d="M113.1,106.2H75c-3.4,0-6.2-2.8-6.2-6.2s2.8-6.2,6.2-6.2h38.1c3.5,0,6.2,2.8,6.2,6.2
		S116.6,106.2,113.1,106.2z"/>
	<path fill="#333333" d="M187.9,87.5c0-41.4-39.2-75-87.5-75s-87.5,33.6-87.5,75c0,22.8,12.3,44.1,33.8,58.7
		c2.9,1.9,6.7,1.2,8.7-1.7c1.9-2.9,1.2-6.7-1.7-8.7c-18-12.2-28.3-29.8-28.3-48.4c0-34.5,33.6-62.5,75-62.5s75,28,75,62.5
		s-33.6,62.5-75,62.5c-0.4,0-0.7,0.1-1.1,0.2c-3-0.5-5.9,1-7,3.9c-1.2,3.4-9.1,9.1-18.4,14.4c3.4-11.4,1.8-13.8,0.7-15.4
		c-1.3-1.9-3.5-3.1-5.8-3.1c-3.4,0-6.2,2.8-6.2,6.2c0,1.1,0.3,2.2,0.8,3.1c-0.6,3.6-3.4,11.9-6.5,19.5c-1,2.4-0.4,5.1,1.4,6.9
		c1.2,1.1,2.8,1.8,4.4,1.8c0.9,0,1.7-0.2,2.5-0.5c7.1-3.2,28.8-13.5,36.6-24.5C149.5,161.8,187.9,128.4,187.9,87.5z"/>
</g>
</svg>
