<?xml version="1.0" encoding="utf-8"?>
<!-- Generator: Adobe Illustrator 18.0.0, SVG Export Plug-In . SVG Version: 6.00 Build 0)  -->
<!DOCTYPE svg PUBLIC "-//W3C//DTD SVG 1.1//EN" "http://www.w3.org/Graphics/SVG/1.1/DTD/svg11.dtd">
<svg version="1.1" id="图层_1" xmlns="http://www.w3.org/2000/svg" xmlns:xlink="http://www.w3.org/1999/xlink" x="0px" y="0px"
	 viewBox="0 0 200 200" enable-background="new 0 0 200 200" xml:space="preserve">
<g>
	<path fill="#333333" d="M43.8,118.8c-10.3,0-18.8-8.4-18.8-18.8s8.4-18.8,18.8-18.8s18.8,8.4,18.8,18.8S54.1,118.8,43.8,118.8z"/>
	<path fill="#333333" d="M100,118.8c-10.3,0-18.8-8.4-18.8-18.8s8.4-18.8,18.8-18.8s18.8,8.4,18.8,18.8S110.3,118.8,100,118.8z"/>
	<path fill="#333333" d="M156.2,118.8c-10.3,0-18.8-8.4-18.8-18.8s8.4-18.8,18.8-18.8S175,89.7,175,100S166.6,118.8,156.2,118.8z"/>
</g>
</svg>
