<?xml version="1.0" encoding="utf-8"?>
<!-- Generator: Adobe Illustrator 18.0.0, SVG Export Plug-In . SVG Version: 6.00 Build 0)  -->
<!DOCTYPE svg PUBLIC "-//W3C//DTD SVG 1.1//EN" "http://www.w3.org/Graphics/SVG/1.1/DTD/svg11.dtd">
<svg version="1.1" id="图层_1" xmlns="http://www.w3.org/2000/svg" xmlns:xlink="http://www.w3.org/1999/xlink" x="0px" y="0px"
	 viewBox="0 0 200 200" enable-background="new 0 0 200 200" xml:space="preserve">
<g>
	<path fill="#333333" d="M31.3,180.2c-2.1,0-4.1-1-5.3-2.9c-1.8-2.9-1-6.8,2-8.6C29,168,54.6,152,74.9,151H75v-3.5
		c-23.5-9.8-39-34.3-39-62.6c0-37,28.5-67.1,63.5-67.1s63.6,30.1,63.6,67.2c0,28.3-14.8,52.2-38.1,62.2v4
		c20.5,1.8,45.9,16.9,47,17.6c3,1.8,3.9,5.6,2.2,8.6c-1.8,3-5.6,3.9-8.6,2.2c-0.2-0.1-24.7-14.6-41.8-15.9l-5,0
		c-3.5,0-6.2-2.8-6.2-6.2v-14.4c0-2.7,1.7-5,4.2-5.9c20.6-7.1,33.9-27.5,33.9-52c0-30.1-22.9-54.6-51.1-54.6
		c-28.1,0-51,24.5-51,54.7c0,24.6,13.9,45.6,34.7,52.3c2.6,0.8,4.3,3.2,4.3,5.9v14.1c0,3.5-2.8,6.2-6.2,6.2h-6
		c-16.8,0.8-40.4,15.6-40.6,15.8C33.5,179.9,32.4,180.2,31.3,180.2z"/>
</g>
</svg>
