<?xml version="1.0" encoding="utf-8"?>
<!-- Generator: Adobe Illustrator 18.0.0, SVG Export Plug-In . SVG Version: 6.00 Build 0)  -->
<!DOCTYPE svg PUBLIC "-//W3C//DTD SVG 1.1//EN" "http://www.w3.org/Graphics/SVG/1.1/DTD/svg11.dtd">
<svg version="1.1" id="图层_1" xmlns="http://www.w3.org/2000/svg" xmlns:xlink="http://www.w3.org/1999/xlink" x="0px" y="0px"
	 viewBox="0 0 200 200" enable-background="new 0 0 200 200" xml:space="preserve">
<g>
	<path fill="#333333" d="M171.4,170.4c0,0-31.8-16.2-46.4-17.2v-4.6c23.4-9.9,38.1-34.2,38.1-62.5c0-37.1-28.5-67.3-63.5-67.3
		S36,49,36,86.1c0,28.7,15.1,53.1,39,62.8l0,4.3h-0.3c-13.6,0.7-46,17.1-46,17.1s-4.2,3.5-3.8,6.2c0.5,2.7,2.9,4.7,5.7,4.7h52h34.6
		h51.9c2.8,0,5.2-1.9,5.7-4.6C175.4,174,171.4,170.4,171.4,170.4z"/>
</g>
</svg>
