<?xml version="1.0" encoding="utf-8"?>
<!-- Generator: Adobe Illustrator 18.0.0, SVG Export Plug-In . SVG Version: 6.00 Build 0)  -->
<!DOCTYPE svg PUBLIC "-//W3C//DTD SVG 1.1//EN" "http://www.w3.org/Graphics/SVG/1.1/DTD/svg11.dtd">
<svg version="1.1" id="图层_1" xmlns="http://www.w3.org/2000/svg" xmlns:xlink="http://www.w3.org/1999/xlink" x="0px" y="0px"
	 viewBox="0 0 200 200" enable-background="new 0 0 200 200" xml:space="preserve">
<g>
	<path fill="#333333" d="M156.1,174.9H31.2c-10.3,0-18.8-8.4-18.8-18.8l0-113c0-10.3,8.4-18.8,18.8-18.8h125.5
		c10.3,0,18.8,8.4,18.8,18.8v18.4c0,3.4-2.8,6.2-6.2,6.2c-3.5,0-6.2-2.8-6.2-6.2V43.1c0-3.4-2.8-6.2-6.2-6.2H31.2
		c-3.4,0-6.2,2.8-6.2,6.2v113c0,3.5,2.8,6.2,6.2,6.2h124.9c3.4,0,6.2-2.8,6.2-6.2v-19.3c0-3.5,2.8-6.2,6.2-6.2
		c3.5,0,6.2,2.8,6.2,6.2v19.3C174.9,166.5,166.5,174.9,156.1,174.9z"/>
	<path fill="#333333" d="M123.1,99.4c0,3.4,2.7,6.1,6.1,6.1c3.4,0,6.1-2.7,6.1-6.1c0-3.4-2.7-6.1-6.1-6.1
		C125.8,93.3,123.1,96,123.1,99.4z"/>
	<path fill="#333333" d="M175,124h-62.5c-6.9,0-12.5-5.6-12.5-12.5v-25c0-6.9,5.6-12.5,12.5-12.5H175c6.9,0,12.5,5.6,12.5,12.5v25
		C187.5,118.4,181.9,124,175,124z M112.5,86.5v25H175l0-25H112.5z"/>
</g>
</svg>
