<?xml version="1.0" encoding="utf-8"?>
<!-- Generator: Adobe Illustrator 18.0.0, SVG Export Plug-In . SVG Version: 6.00 Build 0)  -->
<!DOCTYPE svg PUBLIC "-//W3C//DTD SVG 1.1//EN" "http://www.w3.org/Graphics/SVG/1.1/DTD/svg11.dtd">
<svg version="1.1" id="图层_1" xmlns="http://www.w3.org/2000/svg" xmlns:xlink="http://www.w3.org/1999/xlink" x="0px" y="0px"
	 viewBox="0 0 200 200" enable-background="new 0 0 200 200" xml:space="preserve">
<g>
	<path fill="#333333" d="M189.6,115.2c-2-2.8-5.9-3.4-8.7-1.4l-11.1,8c1.9-7,2.9-14.3,2.9-21.6c0-44.9-36.5-81.4-81.5-81.4
		c-44.9,0-81.5,36.5-81.5,81.4s36.5,81.5,81.5,81.5c14.2,0,28.1-3.7,40.4-10.7c0.7-0.1,1.3-0.3,1.9-0.7c3.5-2.1,6.9-4.4,10-7
		c2.7-2.2,3-6.1,0.9-8.8c-2.2-2.7-6.1-3.1-8.8-0.9c-2.4,2-5.1,3.8-7.8,5.5c-0.4,0.1-0.8,0.2-1.2,0.4c-10.6,6.3-22.8,9.7-35.3,9.7
		c-38,0-69-30.9-69-69s30.9-68.9,69-68.9s69,30.9,69,69c0,8.6-1.6,17.1-4.7,25l-8.8-21.2c-1.3-3.2-5-4.7-8.2-3.4
		c-3.2,1.3-4.7,5-3.4,8.2l14.1,33.8c0.1,0.4,0.4,0.7,0.6,1c0.1,0.1,0.1,0.2,0.1,0.3c0,0,0.1,0,0.1,0.1c0.5,0.7,1.2,1.3,2,1.7
		c0.1,0.1,0.3,0.1,0.4,0.2c0.7,0.3,1.3,0.5,2.1,0.6c0.1,0,0.2,0,0.4,0c0.1,0,0.1,0,0.2,0c0.1,0,0.3,0,0.4-0.1c0.5,0,0.9-0.1,1.4-0.2
		c0.1,0,0.2-0.1,0.3-0.1c0.5-0.2,1-0.4,1.4-0.7c0.1,0,0.1-0.1,0.2-0.1l29.6-21.3C190.9,121.9,191.6,118,189.6,115.2z"/>
	<path fill="#333333" d="M115.5,73.1c2.5-2.4,2.5-6.4,0.1-8.8c-2.4-2.5-6.4-2.5-8.8-0.1L91.2,79.2L75.7,64.2
		c-2.5-2.4-6.4-2.3-8.8,0.1c-2.4,2.5-2.3,6.4,0.1,8.8l17.5,17v3.7H72c-3.4,0-6.2,2.8-6.2,6.2s2.8,6.2,6.2,6.2h12.5v6.2H72
		c-3.4,0-6.2,2.8-6.2,6.2s2.8,6.2,6.2,6.2h12.5v13.1c0,3.5,2.8,6.2,6.2,6.2s6.2-2.8,6.2-6.2V125h12.5c3.5,0,6.2-2.8,6.2-6.2
		s-2.8-6.2-6.2-6.2H97v-6.2h12.5c3.5,0,6.2-2.8,6.2-6.2s-2.8-6.2-6.2-6.2H97V91L115.5,73.1z"/>
</g>
</svg>
