<?xml version="1.0" encoding="utf-8"?>
<!-- Generator: Adobe Illustrator 18.0.0, SVG Export Plug-In . SVG Version: 6.00 Build 0)  -->
<!DOCTYPE svg PUBLIC "-//W3C//DTD SVG 1.1//EN" "http://www.w3.org/Graphics/SVG/1.1/DTD/svg11.dtd">
<svg version="1.1" id="图层_1" xmlns="http://www.w3.org/2000/svg" xmlns:xlink="http://www.w3.org/1999/xlink" x="0px" y="0px"
	 viewBox="0 0 200 200" enable-background="new 0 0 200 200" xml:space="preserve">
<g>
	<path fill="#333333" d="M181.2,106.2H18.8c-3.5,0-6.2-2.8-6.2-6.2s2.8-6.2,6.2-6.2h162.5c3.5,0,6.2,2.8,6.2,6.2
		S184.7,106.2,181.2,106.2z"/>
	<path fill="#333333" d="M162.5,181.2H125c-3.5,0-6.2-2.8-6.2-6.2s2.8-6.2,6.2-6.2h37.5c3.4,0,6.2-2.8,6.2-6.2v-31.2
		c0-3.5,2.8-6.2,6.2-6.2s6.2,2.8,6.2,6.2v31.2C181.2,172.8,172.8,181.2,162.5,181.2z"/>
	<path fill="#333333" d="M68.8,181.2H37.5c-10.3,0-18.8-8.4-18.8-18.8v-31.2c0-3.5,2.8-6.2,6.2-6.2s6.2,2.8,6.2,6.2v31.2
		c0,3.4,2.8,6.2,6.2,6.2h31.2c3.4,0,6.2,2.8,6.2,6.2S72.2,181.2,68.8,181.2z"/>
	<path fill="#333333" d="M25,75c-3.5,0-6.2-2.8-6.2-6.2V37.5c0-10.3,8.4-18.8,18.8-18.8h31.2c3.4,0,6.2,2.8,6.2,6.2
		s-2.8,6.2-6.2,6.2H37.5c-3.4,0-6.2,2.8-6.2,6.2v31.2C31.2,72.2,28.5,75,25,75z"/>
	<path fill="#333333" d="M175,75c-3.5,0-6.2-2.8-6.2-6.2V37.5c0-3.4-2.8-6.2-6.2-6.2H125c-3.5,0-6.2-2.8-6.2-6.2s2.8-6.2,6.2-6.2
		h37.5c10.3,0,18.8,8.4,18.8,18.8v31.2C181.2,72.2,178.5,75,175,75z"/>
</g>
</svg>
