<?xml version="1.0" encoding="utf-8"?>
<!-- Generator: Adobe Illustrator 18.0.0, SVG Export Plug-In . SVG Version: 6.00 Build 0)  -->
<!DOCTYPE svg PUBLIC "-//W3C//DTD SVG 1.1//EN" "http://www.w3.org/Graphics/SVG/1.1/DTD/svg11.dtd">
<svg version="1.1" id="图层_1" xmlns="http://www.w3.org/2000/svg" xmlns:xlink="http://www.w3.org/1999/xlink" x="0px" y="0px"
	 viewBox="0 0 200 200" enable-background="new 0 0 200 200" xml:space="preserve">
<path fill="#333333" d="M56.1,100H43.9c-3.5,0-6.2-2.8-6.2-6.2s2.8-6.2,6.2-6.2h12.1c3.5,0,6.2,2.8,6.2,6.2S59.5,100,56.1,100z"/>
<path fill="#333333" d="M172.4,25H27.6c-8.3,0-15.1,6.8-15.1,15.1v30.2V72v89.5c0,7.5,6.2,13.6,13.9,13.6h147.2
	c7.7,0,13.9-6.1,13.9-13.6V72V40.1C187.5,31.8,180.7,25,172.4,25z M175,40.1v25.6h-43.7l0-28.2h41C173.8,37.5,175,38.7,175,40.1z
	 M87.2,37.5h31.6v70.4l-13.8-5.5c-1.5-0.6-3.2-0.6-4.7,0l-13.1,5.4V37.5z M25,40.1c0-1.4,1.2-2.6,2.6-2.6h47.1v28.2H25V40.1z
	 M173.6,162.5H26.4c-0.8,0-1.4-0.6-1.4-1.1V78.2h49.7v38.9c0,2.1,1,4,2.8,5.2c1,0.7,2.3,1.1,3.5,1.1c0.8,0,1.6-0.2,2.4-0.5l19.4-8
	l20,8c1.9,0.8,4.1,0.5,5.8-0.6c1.7-1.2,2.7-3.1,2.7-5.2V78.2H175v83.2C175,161.9,174.4,162.5,173.6,162.5z"/>
</svg>
