<?xml version="1.0" encoding="utf-8"?>
<!-- Generator: Adobe Illustrator 18.0.0, SVG Export Plug-In . SVG Version: 6.00 Build 0)  -->
<!DOCTYPE svg PUBLIC "-//W3C//DTD SVG 1.1//EN" "http://www.w3.org/Graphics/SVG/1.1/DTD/svg11.dtd">
<svg version="1.1" id="图层_1" xmlns="http://www.w3.org/2000/svg" xmlns:xlink="http://www.w3.org/1999/xlink" x="0px" y="0px"
	 viewBox="0 0 200 200" enable-background="new 0 0 200 200" xml:space="preserve">
<g>
	<path fill="#333333" d="M168.6,100c0-14.8-4.6-29-13.3-41.1c-2-2.8-5.9-3.4-8.7-1.4c-2.8,2-3.4,5.9-1.4,8.7
		c7.2,10,10.9,21.7,10.9,33.9s-3.8,23.9-10.9,33.8c-2,2.8-1.4,6.7,1.4,8.7c1.1,0.8,2.4,1.2,3.6,1.2c1.9,0,3.9-0.9,5.1-2.6
		C164,129,168.6,114.8,168.6,100z"/>
	<path fill="#333333" d="M53.1,57.4c-2.8-2-6.7-1.4-8.7,1.4C35.7,71,31.1,85.2,31.1,100s4.6,29,13.3,41.1c1.2,1.7,3.1,2.6,5.1,2.6
		c1.3,0,2.5-0.4,3.6-1.2c2.8-2,3.4-5.9,1.4-8.7c-7.2-10-10.9-21.7-10.9-33.9s3.8-23.9,10.9-33.9C56.5,63.3,55.9,59.4,53.1,57.4z"/>
	<path fill="#333333" d="M166.3,27.1c-2.3-2.6-6.2-2.9-8.8-0.6c-2.6,2.3-2.9,6.2-0.6,8.8c15.7,18,24.4,40.9,24.4,64.6
		s-8.7,46.7-24.4,64.6c-2.3,2.6-2,6.5,0.6,8.8c1.2,1,2.7,1.6,4.1,1.6c1.7,0,3.5-0.7,4.7-2.1c17.7-20.2,27.5-46.1,27.5-72.9
		C193.8,73.2,184,47.4,166.3,27.1z"/>
	<path fill="#333333" d="M19,100c0-23.7,8.7-46.7,24.4-64.6c2.3-2.6,2-6.5-0.6-8.8c-2.6-2.3-6.5-2-8.8,0.6
		C16.2,47.4,6.5,73.2,6.5,100s9.8,52.6,27.5,72.9c1.2,1.4,3,2.1,4.7,2.1c1.5,0,2.9-0.5,4.1-1.5c2.6-2.3,2.9-6.2,0.6-8.8
		C27.6,146.7,19,123.7,19,100z"/>
	<path fill="#333333" d="M100.4,56.2c-24.1,0-43.8,19.6-43.8,43.8c0,12.4,5.3,24.2,14.6,32.6c2.6,2.3,6.5,2.1,8.8-0.5
		c2.3-2.6,2.1-6.5-0.5-8.8c-6.6-5.9-10.4-14.4-10.4-23.2c0-17.2,14-31.2,31.2-31.2s31.2,14,31.2,31.2s-14,31.2-31.2,31.2h-2.2
		c-2.6,0-5,1.7-5.9,4.2c-1.5,4.3-3.9,8.1-7.1,11.3c-2.4,2.5-2.4,6.4,0.1,8.8c1.2,1.2,2.8,1.8,4.4,1.8c1.6,0,3.2-0.6,4.5-1.9
		c3.4-3.5,6.2-7.4,8.2-11.8c23.2-1.1,41.7-20.3,41.7-43.7C144.2,75.9,124.6,56.2,100.4,56.2z"/>
</g>
</svg>
