<?xml version="1.0" encoding="utf-8"?>
<!-- Generator: Adobe Illustrator 18.0.0, SVG Export Plug-In . SVG Version: 6.00 Build 0)  -->
<!DOCTYPE svg PUBLIC "-//W3C//DTD SVG 1.1//EN" "http://www.w3.org/Graphics/SVG/1.1/DTD/svg11.dtd">
<svg version="1.1" id="图层_1" xmlns="http://www.w3.org/2000/svg" xmlns:xlink="http://www.w3.org/1999/xlink" x="0px" y="0px"
	 viewBox="0 0 200 200" enable-background="new 0 0 200 200" xml:space="preserve">
<g>
	<path fill="#333333" d="M168.6,100c0-14.8-4.6-29-13.3-41.1c-2-2.8-5.9-3.4-8.7-1.4c-2.8,2-3.4,5.9-1.4,8.7
		c7.2,10,10.9,21.7,10.9,33.9s-3.8,23.9-10.9,33.8c-2,2.8-1.4,6.7,1.4,8.7c1.1,0.8,2.4,1.2,3.6,1.2c1.9,0,3.9-0.9,5.1-2.6
		C164,129,168.6,114.8,168.6,100z"/>
	<path fill="#333333" d="M53.1,57.4c-2.8-2-6.7-1.4-8.7,1.4C35.7,71,31.1,85.2,31.1,100s4.6,29,13.3,41.1c1.2,1.7,3.1,2.6,5.1,2.6
		c1.3,0,2.5-0.4,3.6-1.2c2.8-2,3.4-5.9,1.4-8.7c-7.2-10-10.9-21.7-10.9-33.9s3.8-23.9,10.9-33.9C56.5,63.3,55.9,59.4,53.1,57.4z"/>
	<path fill="#333333" d="M166.3,27.1c-2.3-2.6-6.2-2.9-8.8-0.6c-2.6,2.3-2.9,6.2-0.6,8.8c15.7,18,24.4,40.9,24.4,64.6
		s-8.7,46.7-24.4,64.6c-2.3,2.6-2,6.5,0.6,8.8c1.2,1,2.7,1.6,4.1,1.6c1.7,0,3.5-0.7,4.7-2.1c17.7-20.2,27.5-46.1,27.5-72.9
		C193.8,73.2,184,47.4,166.3,27.1z"/>
	<path fill="#333333" d="M19,100c0-23.7,8.7-46.7,24.4-64.6c2.3-2.6,2-6.5-0.6-8.8c-2.6-2.3-6.5-2-8.8,0.6
		C16.2,47.4,6.5,73.2,6.5,100s9.8,52.6,27.5,72.9c1.2,1.4,3,2.1,4.7,2.1c1.5,0,2.9-0.5,4.1-1.5c2.6-2.3,2.9-6.2,0.6-8.8
		C27.6,146.7,19,123.7,19,100z"/>
	<path fill="#333333" d="M135.1,126.6c0.7-0.9,1.3-1.7,1.9-2.6c0.2-0.2,0.3-0.5,0.5-0.8c0.6-0.9,1.1-1.8,1.6-2.8
		c0.2-0.3,0.3-0.6,0.4-0.9c0.5-0.9,0.9-1.9,1.3-2.8c0.2-0.4,0.3-0.8,0.4-1.2c0.3-0.9,0.7-1.8,1-2.8c0.2-0.5,0.3-1,0.4-1.6
		c0.2-0.8,0.5-1.7,0.6-2.5c0.2-0.7,0.2-1.5,0.4-2.3c0.1-0.7,0.2-1.3,0.3-2c0.1-1.4,0.2-2.9,0.2-4.4c0-24.2-19.6-43.8-43.8-43.8
		S56.7,75.9,56.7,100c0,1.6,0.1,3.1,0.2,4.6c0,0,0,0.1,0,0.1c0.7,6.2,2.6,12,5.6,17.2v0c0.8,1.3,1.6,2.6,2.5,3.8
		c0,0.1,0.1,0.1,0.1,0.2c0.9,1.2,1.8,2.3,2.7,3.4c0.1,0.1,0.1,0.1,0.2,0.2c1,1.1,2,2.1,3.1,3.1c0,0,0.1,0.1,0.1,0.1c0,0,0,0,0,0
		c5,4.5,11,7.8,17.6,9.6c-1.1,1.6-2.2,3.2-3.6,4.6c-2.4,2.5-2.4,6.4,0.1,8.8c1.2,1.2,2.8,1.8,4.4,1.8c1.6,0,3.2-0.6,4.5-1.9
		c3.4-3.5,6.2-7.4,8.2-11.8c0.4,0,0.8-0.1,1.3-0.1c0.7-0.1,1.4-0.1,2.1-0.2c0.7-0.1,1.4-0.2,2.1-0.3c0.7-0.1,1.5-0.3,2.2-0.4
		c0.7-0.1,1.3-0.3,1.9-0.5c0.8-0.2,1.5-0.4,2.2-0.7c0.6-0.2,1.1-0.4,1.7-0.6c0.8-0.3,1.5-0.6,2.3-0.9c0.5-0.2,0.9-0.4,1.4-0.7
		c0.8-0.4,1.6-0.8,2.4-1.2c0.4-0.2,0.8-0.5,1.2-0.7c0.8-0.5,1.6-1,2.4-1.5c0.3-0.2,0.6-0.5,0.9-0.7c0.8-0.6,1.6-1.2,2.4-1.9
		c0.3-0.2,0.5-0.4,0.7-0.7c0.8-0.7,1.5-1.4,2.3-2.1c0.2-0.2,0.4-0.5,0.6-0.7c0.7-0.8,1.4-1.6,2.1-2.4
		C134.8,127.1,134.9,126.8,135.1,126.6z"/>
</g>
</svg>
